<svg id="Layer_1" data-name="Layer 1" xmlns="http://www.w3.org/2000/svg" viewBox="0 0 640 320"><defs><style>.cls-1,.cls-2,.cls-3,.cls-4,.cls-5{fill:none;stroke-width:0.75px;}.cls-1,.cls-2{stroke:#231f20;}.cls-1{stroke-linecap:round;stroke-linejoin:round;}.cls-3{stroke:#a90000;}.cls-4{stroke:#0000a9;}.cls-5{stroke:#00a900;}</style></defs><g id="LINE"><line class="cls-1" x1="137.188" y1="247.534" x2="171.496" y2="247.534"/></g><g id="LINE-2" data-name="LINE"><line class="cls-1" x1="26.441" y1="234.594" x2="41.187" y2="234.594"/></g><g id="LINE-3" data-name="LINE"><line class="cls-1" x1="26.441" y1="234.594" x2="26.441" y2="298.695"/></g><g id="LINE-4" data-name="LINE"><line class="cls-1" x1="26.441" y1="298.695" x2="282.243" y2="298.695"/></g><g id="LINE-5" data-name="LINE"><line class="cls-1" x1="282.243" y1="234.594" x2="282.243" y2="298.695"/></g><g id="LINE-6" data-name="LINE"><line class="cls-1" x1="188.349" y1="247.534" x2="269.603" y2="247.534"/></g><g id="LINE-7" data-name="LINE"><line class="cls-1" x1="267.497" y1="234.594" x2="282.243" y2="234.594"/></g><g id="LINE-8" data-name="LINE"><line class="cls-1" x1="39.081" y1="247.534" x2="120.335" y2="247.534"/></g><g id="LINE-9" data-name="LINE"><line class="cls-1" x1="39.081" y1="247.534" x2="39.081" y2="285.754"/></g><g id="LINE-10" data-name="LINE"><line class="cls-1" x1="39.081" y1="285.754" x2="269.603" y2="285.754"/></g><g id="LINE-11" data-name="LINE"><line class="cls-1" x1="269.603" y1="247.534" x2="269.603" y2="285.754"/></g><g id="LINE-12" data-name="LINE"><line class="cls-1" x1="206.104" y1="132.273" x2="250.644" y2="132.273"/></g><g id="LINE-13" data-name="LINE"><line class="cls-1" x1="129.063" y1="132.273" x2="179.32" y2="132.273"/></g><g id="LINE-14" data-name="LINE"><line class="cls-1" x1="120.335" y1="247.534" x2="120.335" y2="264.387"/></g><g id="LINE-15" data-name="LINE"><line class="cls-1" x1="120.335" y1="264.387" x2="137.188" y2="264.387"/></g><g id="LINE-16" data-name="LINE"><line class="cls-1" x1="137.188" y1="247.534" x2="137.188" y2="264.387"/></g><g id="LINE-17" data-name="LINE"><line class="cls-1" x1="188.349" y1="264.387" x2="171.496" y2="264.387"/></g><g id="LINE-18" data-name="LINE"><line class="cls-1" x1="171.496" y1="247.534" x2="171.496" y2="264.387"/></g><g id="LINE-19" data-name="LINE"><line class="cls-1" x1="188.349" y1="247.534" x2="188.349" y2="264.387"/></g><g id="LINE-20" data-name="LINE"><line class="cls-1" x1="267.497" y1="234.594" x2="267.497" y2="197.879"/></g><g id="LINE-21" data-name="LINE"><line class="cls-1" x1="58.04" y1="132.273" x2="102.58" y2="132.273"/></g><g id="LINE-22" data-name="LINE"><line class="cls-1" x1="58.04" y1="132.273" x2="58.04" y2="197.879"/></g><g id="LINE-23" data-name="LINE"><line class="cls-1" x1="250.644" y1="132.273" x2="250.644" y2="197.879"/></g><g id="LINE-24" data-name="LINE"><line class="cls-1" x1="41.187" y1="234.594" x2="41.187" y2="197.879"/></g><g id="LINE-25" data-name="LINE"><line class="cls-1" x1="41.187" y1="197.879" x2="58.04" y2="197.879"/></g><g id="LINE-26" data-name="LINE"><line class="cls-1" x1="267.497" y1="197.879" x2="250.644" y2="197.879"/></g><g id="LINE-27" data-name="LINE"><line class="cls-1" x1="126.655" y1="221.954" x2="182.029" y2="221.954"/></g><g id="LINE-28" data-name="LINE"><line class="cls-1" x1="126.655" y1="221.954" x2="126.655" y2="234.594"/></g><g id="LINE-29" data-name="LINE"><line class="cls-1" x1="126.655" y1="234.594" x2="182.029" y2="234.594"/></g><g id="LINE-30" data-name="LINE"><line class="cls-1" x1="182.029" y1="221.954" x2="182.029" y2="234.594"/></g><g id="LINE-31" data-name="LINE"><line class="cls-1" x1="100.774" y1="125.05" x2="102.58" y2="132.273"/></g><g id="LINE-32" data-name="LINE"><line class="cls-1" x1="125.451" y1="118.43" x2="129.063" y2="132.273"/></g><g id="LINE-33" data-name="LINE"><line class="cls-1" x1="207.91" y1="125.05" x2="206.104" y2="132.273"/></g><g id="LINE-34" data-name="LINE"><line class="cls-1" x1="183.233" y1="118.43" x2="179.32" y2="132.273"/></g><g id="CIRCLE"><circle class="cls-1" cx="107.395" cy="187.647" r="34.007"/></g><g id="CIRCLE-2" data-name="CIRCLE"><circle class="cls-1" cx="201.289" cy="187.647" r="34.007"/></g><g id="ARC"><path class="cls-1" d="M118.53,42.592A25.55,25.55,0,0,0,69.175,55.833"/></g><g id="ARC-2" data-name="ARC"><path class="cls-1" d="M95.357,119.332a16.266,16.266,0,0,0,5.417,5.718"/></g><g id="ARC-3" data-name="ARC"><path class="cls-1" d="M68.874,55.833a255.474,255.474,0,0,0,26.483,63.5"/></g><g id="ARC-4" data-name="ARC"><path class="cls-1" d="M127.257,110.906a274.312,274.312,0,0,0-8.727-68.314"/></g><g id="ARC-5" data-name="ARC"><path class="cls-1" d="M207.91,125.05a19.721,19.721,0,0,0,5.417-5.718"/></g><g id="ARC-6" data-name="ARC"><path class="cls-1" d="M213.327,119.332a255.474,255.474,0,0,0,26.483-63.5"/></g><g id="ARC-7" data-name="ARC"><path class="cls-1" d="M190.154,42.592a248.865,248.865,0,0,0-8.727,68.314"/></g><g id="ARC-8" data-name="ARC"><path class="cls-1" d="M239.81,55.833a25.55,25.55,0,1,0-49.355-13.241"/></g><g id="ARC-9" data-name="ARC"><path class="cls-1" d="M181.427,110.906a16.317,16.317,0,0,0,1.806,7.524"/></g><g id="ARC-10" data-name="ARC"><path class="cls-1" d="M125.451,118.43a16.317,16.317,0,0,0,1.806-7.524"/></g><g id="POINT"><line class="cls-1" x1="93.551" y1="49.213" x2="93.551" y2="49.213"/></g><g id="c100_arrow" data-name="c100 arrow"><path class="cls-2" d="M301.5,175.609a4.115,4.115,0,0,0,4.214,4.213h24.075l-6.621,6.621a4.275,4.275,0,1,0,6.019,6.019l13.543-13.543a4.656,4.656,0,0,0,.3-6.32h0l-.3-.3-13.242-13.241a4.064,4.064,0,1,0-5.718,5.718l6.621,6.621H306.319C303.61,171.4,301.5,173.2,301.5,175.609Z"/></g><circle class="cls-3" cx="451.175" cy="186.565" r="34.122"/><circle class="cls-4" cx="451.175" cy="186.565" r="35.829" transform="translate(-24.059 74.679) rotate(-9.217)"/><circle class="cls-5" cx="451.175" cy="186.565" r="32.416"/><circle class="cls-3" cx="545.012" cy="186.565" r="34.122"/><circle class="cls-4" cx="545.012" cy="186.565" r="35.829"/><circle class="cls-5" cx="545.012" cy="186.565" r="32.416"/><path class="cls-3" d="M481.032,246.279h34.123V263.34h17.061V246.279h81.041v38.388H382.93V246.279h81.041V263.34h17.061Z"/><path class="cls-4" d="M479.326,246.279a1.706,1.706,0,0,1,1.706-1.706h34.123a1.706,1.706,0,0,1,1.706,1.706v15.355H530.51V246.279a1.706,1.706,0,0,1,1.706-1.706h81.041a1.706,1.706,0,0,1,1.706,1.706h0v38.388a1.706,1.706,0,0,1-1.706,1.706H382.93a1.706,1.706,0,0,1-1.706-1.706h0V246.279a1.706,1.706,0,0,1,1.706-1.706h81.041a1.706,1.706,0,0,1,1.706,1.706h0v15.355h13.649Z"/><path class="cls-5" d="M482.739,247.985h30.71V263.34a1.7,1.7,0,0,0,1.706,1.706h17.061a1.706,1.706,0,0,0,1.706-1.706h0V247.985h77.629v34.976H384.636V247.985h77.629V263.34a1.706,1.706,0,0,0,1.706,1.706h17.061a1.706,1.706,0,0,0,1.707-1.706Z"/><path class="cls-3" d="M370.134,233.483h14.9V196.724h16.7V131.116h44.723l-1.925-7.181-2.048-1.6-1.777-1.884-1.475-2.138-10.7-20.381-8.845-21.227-6.938-21.949-.878-6.808.91-6.572,2.525-6.039,3.967-5.206,5.238-4.074,6.334-2.644,6.809-.878,6.572.91,6.039,2.525,5.206,3.967,4.074,5.237,2.644,6.335,4.966,22.477,2.954,22.806.924,23-.209,2.589-.6,2.52-.975,2.408,3.7,13.805h50.281l3.7-13.805-.975-2.408-.6-2.52-.208-2.589.923-23,2.954-22.806L534,41.511l2.644-6.335,4.074-5.237,5.206-3.967,6.039-2.525,6.572-.91,6.809.878,6.335,2.644,5.237,4.074,3.967,5.206,2.525,6.039.91,6.572-.878,6.808L576.5,76.707l-8.845,21.227-10.7,20.381-1.475,2.138-1.777,1.884-2.048,1.6-1.924,7.181h44.722v65.608h16.7v36.759h14.9v63.98H370.134Z"/><path class="cls-5" d="M368.428,233.483a1.706,1.706,0,0,1,1.706-1.706h13.192V196.724a1.706,1.706,0,0,1,1.706-1.706h15v-63.9a1.7,1.7,0,0,1,1.706-1.706h42.5l-1.2-4.482-1.6-1.246a1.6,1.6,0,0,1-.192-.175l-1.777-1.884a1.746,1.746,0,0,1-.163-.2l-1.475-2.138a1.756,1.756,0,0,1-.107-.176l-10.7-20.381c-.023-.044-.045-.09-.064-.137l-8.845-21.227c-.019-.046-.037-.094-.052-.142l-6.938-21.948a1.778,1.778,0,0,1-.065-.3l-.878-6.808a1.761,1.761,0,0,1,0-.453l.91-6.572a1.7,1.7,0,0,1,.116-.425l2.525-6.038a1.7,1.7,0,0,1,.217-.376l3.967-5.206a1.7,1.7,0,0,1,.31-.313l5.237-4.074a1.732,1.732,0,0,1,.39-.228l6.335-2.644a1.717,1.717,0,0,1,.439-.117l6.808-.878a1.71,1.71,0,0,1,.452,0l6.573.91a1.676,1.676,0,0,1,.424.116l6.039,2.524a1.739,1.739,0,0,1,.376.218l5.206,3.967a1.69,1.69,0,0,1,.312.309l4.075,5.238a1.71,1.71,0,0,1,.228.39l2.644,6.335a1.7,1.7,0,0,1,.091.289l4.966,22.477a1.5,1.5,0,0,1,.026.149L471.8,86.574c.006.051.01.1.012.151l.924,23a1.571,1.571,0,0,1,0,.206l-.208,2.589a1.706,1.706,0,0,1-.041.256l-.6,2.521a1.688,1.688,0,0,1-.079.247l-.76,1.877,3.212,11.989h47.663l3.212-11.989-.76-1.877a1.688,1.688,0,0,1-.079-.247l-.6-2.521a1.7,1.7,0,0,1-.04-.256l-.209-2.589a1.571,1.571,0,0,1,0-.206l.924-23c0-.05.006-.1.012-.151l2.954-22.8c.007-.05.015-.1.026-.149l4.966-22.477a1.705,1.705,0,0,1,.092-.289l2.643-6.335a1.678,1.678,0,0,1,.229-.39l4.074-5.238a1.69,1.69,0,0,1,.312-.309l5.206-3.967a1.763,1.763,0,0,1,.376-.218l6.039-2.524a1.676,1.676,0,0,1,.424-.116l6.573-.91a1.71,1.71,0,0,1,.452,0l6.808.878a1.717,1.717,0,0,1,.439.117l6.335,2.644a1.732,1.732,0,0,1,.39.228l5.238,4.074a1.727,1.727,0,0,1,.309.313l3.967,5.206a1.7,1.7,0,0,1,.217.376l2.525,6.038a1.7,1.7,0,0,1,.116.425l.91,6.572a1.761,1.761,0,0,1,0,.453l-.878,6.808a1.778,1.778,0,0,1-.065.3l-6.938,21.948a1.417,1.417,0,0,1-.052.142L569.228,98.59c-.019.047-.041.093-.064.137l-10.7,20.381a1.955,1.955,0,0,1-.106.176l-1.476,2.138a1.646,1.646,0,0,1-.163.2l-1.777,1.884a1.6,1.6,0,0,1-.192.175l-1.6,1.246-1.2,4.482h42.5a1.706,1.706,0,0,1,1.707,1.705h0v63.9h15a1.706,1.706,0,0,1,1.706,1.706v35.053h13.192a1.706,1.706,0,0,1,1.706,1.706v63.98a1.706,1.706,0,0,1-1.706,1.706H370.134a1.706,1.706,0,0,1-1.706-1.706Z"/><path class="cls-4" d="M371.84,235.189h13.192a1.706,1.706,0,0,0,1.707-1.706h0V198.43h15a1.706,1.706,0,0,0,1.706-1.706h0v-63.9h43.017a1.706,1.706,0,0,0,1.706-1.706,1.736,1.736,0,0,0-.058-.442l-1.925-7.181a1.709,1.709,0,0,0-.6-.9l-1.946-1.517-1.6-1.7-1.343-1.946L430.08,97.208l-8.787-21.087-6.869-21.732-.829-6.431.848-6.127L416.8,36.2l3.7-4.856,4.882-3.8,5.913-2.468,6.355-.82,6.127.848,5.632,2.355,4.855,3.7,3.8,4.883,2.5,5.984,4.917,22.254,2.934,22.656.916,22.821-.189,2.357-.537,2.267-.926,2.287a1.7,1.7,0,0,0-.067,1.082l3.7,13.8a1.707,1.707,0,0,0,1.648,1.265h50.281a1.707,1.707,0,0,0,1.648-1.265l3.7-13.8a1.7,1.7,0,0,0-.067-1.082l-.926-2.287-.536-2.267-.19-2.357.916-22.821,2.934-22.656,4.917-22.254,2.5-5.984,3.8-4.883,4.855-3.7,5.632-2.355,6.128-.848,6.354.82,5.913,2.468,4.882,3.8,3.7,4.856,2.354,5.632.849,6.127-.83,6.431-6.869,21.732-8.787,21.087L555.49,117.431l-1.342,1.946-1.6,1.7-1.946,1.517a1.709,1.709,0,0,0-.6.9l-1.924,7.181a1.706,1.706,0,0,0,1.206,2.09,1.736,1.736,0,0,0,.442.058h43.016v63.9a1.706,1.706,0,0,0,1.706,1.706h15v35.053a1.706,1.706,0,0,0,1.706,1.706h13.193v60.568H371.84Z"/><path class="cls-3" d="M470.369,220.687h55.449v12.8H470.369Z"/><path class="cls-4" d="M468.663,220.687a1.706,1.706,0,0,1,1.706-1.706h55.449a1.706,1.706,0,0,1,1.706,1.706h0v12.8a1.706,1.706,0,0,1-1.706,1.706H470.369a1.706,1.706,0,0,1-1.706-1.706h0Z"/><path class="cls-5" d="M472.075,222.393h52.037v9.384H472.075Z"/></svg>