<?xml version="1.0" encoding="UTF-8"?>
<svg viewBox="84.7285 -179.6815 96.0451 102.3608" xmlns:svgjs="http://svgjs.com/svgjs" xmlns:xlink="http://www.w3.org/1999/xlink" version="1.1" xmlns="http://www.w3.org/2000/svg">
  <g transform="scale(1, -1)">    
    	<circle cx="117.1606" cy="119.6739" r="11.3385" stroke="black" stroke-width="0.15" fill="none"/>
	<circle cx="117.1606" cy="119.6739" r="12.1889" stroke="black" stroke-width="0.15" fill="none"/>
	<circle cx="117.1606" cy="119.6739" r="10.4881" stroke="black" stroke-width="0.15" fill="none"/>
	<circle cx="148.3414" cy="119.6739" r="11.3385" stroke="black" stroke-width="0.15" fill="none"/>
	<circle cx="148.3414" cy="119.6739" r="12.1889" stroke="black" stroke-width="0.15" fill="none"/>
	<circle cx="148.3414" cy="119.6739" r="10.4881" stroke="black" stroke-width="0.15" fill="none"/>
	<path d="M127.0818, 99.8316 L138.4203, 99.8316 L138.4203, 94.1623 L144.0895, 94.1623 L144.0895, 99.8316 L171.0184, 99.8316 L171.0184, 87.0757 L94.4836, 87.0757 L94.4836, 99.8316 L121.4125, 99.8316 L121.4125, 94.1623 L127.0818, 94.1623 L127.0818, 99.8316 Z" stroke="black" stroke-width="0.15" fill="none"/>
	<path d="M126.2314, 99.8316 A0.8504 0.8504 0 0 0 127.0818 100.6819 L138.4203, 100.6819 A0.8504 0.8504 0 0 0 139.2706 99.8316 L139.2706, 95.0127 L143.2391, 95.0127 L143.2391, 99.8316 A0.8504 0.8504 0 0 0 144.0895 100.6819 L171.0184, 100.6819 A0.8504 0.8504 0 0 0 171.8688 99.8316 L171.8688, 87.0757 A0.8504 0.8504 0 0 0 171.0184 86.2254 L94.4836, 86.2254 A0.8504 0.8504 0 0 0 93.6332 87.0757 L93.6332, 99.8316 A0.8504 0.8504 0 0 0 94.4836 100.6819 L121.4125, 100.6819 A0.8504 0.8504 0 0 0 122.2629 99.8316 L122.2629, 95.0127 L126.2314, 95.0127 L126.2314, 99.8316 Z" stroke="black" stroke-width="0.15" fill="none"/>
	<path d="M127.9321, 98.9812 L137.5699, 98.9812 L137.5699, 94.1623 A0.8504 0.8504 0 0 1 138.4203 93.3119 L144.0895, 93.3119 A0.8504 0.8504 0 0 1 144.9399 94.1623 L144.9399, 98.9812 L170.1681, 98.9812 L170.1681, 87.9261 L95.3340, 87.9261 L95.3340, 98.9812 L120.5621, 98.9812 L120.5621, 94.1623 A0.8504 0.8504 0 0 1 121.4125 93.3119 L127.0818, 93.3119 A0.8504 0.8504 0 0 1 127.9321 94.1623 L127.9321, 98.9812 Z" stroke="black" stroke-width="0.15" fill="none"/>
	<path d="M90.2316, 104.0835 L95.1821, 104.0835 L95.1821, 116.2982 L100.7325, 116.2982 L100.7325, 138.0990 L115.5933, 138.0990 L114.9539, 140.4852 L114.2733, 141.0161 L113.6828, 141.6422 L113.1926, 142.3525 L109.6371, 149.1248 L106.6980, 156.1784 L104.3928, 163.4716 L104.1011, 165.7338 L104.4034, 167.9179 L105.2423, 169.9245 L106.5606, 171.6543 L108.3009, 173.0081 L110.4059, 173.8867 L112.6682, 174.1783 L114.8522, 173.8761 L116.8588, 173.0371 L118.5887, 171.7188 L119.9425, 169.9785 L120.8210, 167.8735 L122.4712, 160.4048 L123.4526, 152.8267 L123.7596, 145.1840 L123.6903, 144.3236 L123.4919, 143.4862 L123.1680, 142.6862 L124.3971, 138.0990 L141.1049, 138.0990 L142.3340, 142.6862 L142.0101, 143.4862 L141.8117, 144.3236 L141.7424, 145.1840 L142.0494, 152.8267 L143.0308, 160.4048 L144.6810, 167.8735 L145.5595, 169.9785 L146.9133, 171.7188 L148.6432, 173.0371 L150.6498, 173.8761 L152.8338, 174.1783 L155.0961, 173.8867 L157.2011, 173.0081 L158.9414, 171.6543 L160.2597, 169.9245 L161.0986, 167.9179 L161.4009, 165.7338 L161.1092, 163.4716 L158.8040, 156.1784 L155.8649, 149.1248 L152.3094, 142.3525 L151.8192, 141.6422 L151.2287, 141.0161 L150.5481, 140.4852 L149.9087, 138.0990 L164.7695, 138.0990 L164.7695, 116.2982 L170.3199, 116.2982 L170.3199, 104.0835 L175.2704, 104.0835 L175.2704, 82.8238 L90.2316, 82.8238 L90.2316, 104.0835 Z" stroke="black" stroke-width="0.15" fill="none"/>
	<path d="M89.3812, 104.0835 A0.8504 0.8504 0 0 0 90.2316 104.9339 L94.3318, 104.9339 L94.3318, 116.2982 A0.8504 0.8504 0 0 0 95.1821 117.1485 L99.8821, 117.1485 L99.8821, 138.0990 A0.8504 0.8504 0 0 0 100.7325 138.9494 L114.4850, 138.9494 L114.2062, 139.9899 L113.7503, 140.3456 A0.8504 0.8504 0 0 0 113.6547 140.4326 L113.0642, 141.0587 A0.8504 0.8504 0 0 0 112.9829 141.1592 L112.4927, 141.8696 A0.8504 0.8504 0 0 0 112.4397 141.9573 L108.8842, 148.7295 A0.8504 0.8504 0 0 0 108.8522 148.7977 L105.9131, 155.8513 A0.8504 0.8504 0 0 0 105.8872 155.9221 L103.5819, 163.2153 A0.8504 0.8504 0 0 0 103.5494 163.3628 L103.2577, 165.6251 A0.8504 0.8504 0 0 0 103.2587 165.8504 L103.5610, 168.0345 A0.8504 0.8504 0 0 0 103.6188 168.2459 L104.4577, 170.2525 A0.8504 0.8504 0 0 0 104.5659 170.4399 L105.8842, 172.1698 A0.8504 0.8504 0 0 0 106.0384 172.3255 L107.7788, 173.6794 A0.8504 0.8504 0 0 0 107.9734 173.7929 L110.0784, 174.6714 A0.8504 0.8504 0 0 0 110.2972 174.7301 L112.5594, 175.0218 A0.8504 0.8504 0 0 0 112.7848 175.0207 L114.9688, 174.7184 A0.8504 0.8504 0 0 0 115.1803 174.6606 L117.1868, 173.8217 A0.8504 0.8504 0 0 0 117.3743 173.7135 L119.1041, 172.3952 A0.8504 0.8504 0 0 0 119.2599 172.2410 L120.6137, 170.5007 A0.8504 0.8504 0 0 0 120.7273 170.3061 L121.6058, 168.2010 A0.8504 0.8504 0 0 0 121.6514 168.0570 L123.3015, 160.5882 A0.8504 0.8504 0 0 0 123.3145 160.5140 L124.2960, 152.9359 A0.8504 0.8504 0 0 0 124.3023 152.8608 L124.6093, 145.2181 A0.8504 0.8504 0 0 0 124.6072 145.1157 L124.5379, 144.2553 A0.8504 0.8504 0 0 0 124.5178 144.1276 L124.3194, 143.2902 A0.8504 0.8504 0 0 0 124.2801 143.1670 L124.0631, 142.6311 L125.0496, 138.9494 L140.4524, 138.9494 L141.4389, 142.6311 L141.2219, 143.1670 A0.8504 0.8504 0 0 0 141.1826 143.2902 L140.9842, 144.1276 A0.8504 0.8504 0 0 0 140.9641 144.2553 L140.8948, 145.1157 A0.8504 0.8504 0 0 0 140.8927 145.2181 L141.1997, 152.8608 A0.8504 0.8504 0 0 0 141.2060 152.9359 L142.1875, 160.5140 A0.8504 0.8504 0 0 0 142.2005 160.5882 L143.8506, 168.0570 A0.8504 0.8504 0 0 0 143.8962 168.2010 L144.7747, 170.3061 A0.8504 0.8504 0 0 0 144.8883 170.5007 L146.2421, 172.2410 A0.8504 0.8504 0 0 0 146.3979 172.3952 L148.1277, 173.7135 A0.8504 0.8504 0 0 0 148.3152 173.8217 L150.3217, 174.6606 A0.8504 0.8504 0 0 0 150.5332 174.7184 L152.7172, 175.0207 A0.8504 0.8504 0 0 0 152.9426 175.0218 L155.2048, 174.7301 A0.8504 0.8504 0 0 0 155.4236 174.6714 L157.5286, 173.7929 A0.8504 0.8504 0 0 0 157.7233 173.6794 L159.4636, 172.3255 A0.8504 0.8504 0 0 0 159.6178 172.1698 L160.9361, 170.4399 A0.8504 0.8504 0 0 0 161.0443 170.2525 L161.8832, 168.2459 A0.8504 0.8504 0 0 0 161.9410 168.0345 L162.2433, 165.8504 A0.8504 0.8504 0 0 0 162.2443 165.6251 L161.9526, 163.3628 A0.8504 0.8504 0 0 0 161.9201 163.2153 L159.6148, 155.9221 A0.8504 0.8504 0 0 0 159.5889 155.8513 L156.6498, 148.7977 A0.8504 0.8504 0 0 0 156.6178 148.7295 L153.0623, 141.9573 A0.8504 0.8504 0 0 0 153.0093 141.8696 L152.5191, 141.1592 A0.8504 0.8504 0 0 0 152.4378 141.0587 L151.8473, 140.4326 A0.8504 0.8504 0 0 0 151.7517 140.3456 L151.2958, 139.9899 L151.0170, 138.9494 L164.7695, 138.9494 A0.8504 0.8504 0 0 0 165.6199 138.0990 L165.6199, 117.1485 L170.3199, 117.1485 A0.8504 0.8504 0 0 0 171.1702 116.2982 L171.1702, 104.9339 L175.2704, 104.9339 A0.8504 0.8504 0 0 0 176.1208 104.0835 L176.1208, 82.8238 A0.8504 0.8504 0 0 0 175.2704 81.9734 L90.2316, 81.9734 A0.8504 0.8504 0 0 0 89.3812 82.8238 L89.3812, 104.0835 Z" stroke="black" stroke-width="0.15" fill="none"/>
	<path d="M91.0820, 103.2331 L95.1821, 103.2331 A0.8504 0.8504 0 0 1 96.0325 104.0835 L96.0325, 115.4478 L100.7325, 115.4478 A0.8504 0.8504 0 0 1 101.5828 116.2982 L101.5828, 137.2486 L115.5933, 137.2486 A0.8504 0.8504 0 0 1 116.4147 138.3191 L115.7753, 140.7053 A0.8504 0.8504 0 0 1 115.4769 141.1558 L114.8475, 141.6467 L114.3459, 142.1785 L113.9217, 142.7933 L110.4076, 149.4867 L107.4975, 156.4706 L105.2265, 163.6556 L104.9590, 165.7299 L105.2306, 167.6918 L105.9848, 169.4958 L107.1700, 171.0510 L108.7333, 172.2671 L110.6280, 173.0579 L112.6642, 173.3204 L114.6262, 173.0489 L116.4301, 172.2946 L117.9853, 171.1095 L119.2015, 169.5461 L120.0070, 167.6160 L121.6327, 160.2581 L122.6044, 152.7548 L122.9078, 145.2011 L122.8478, 144.4566 L122.6794, 143.7453 L122.3798, 143.0054 A0.8504 0.8504 0 0 1 122.3466 142.4661 L123.5757, 137.8789 A0.8504 0.8504 0 0 1 124.3971 137.2486 L141.1049, 137.2486 A0.8504 0.8504 0 0 1 141.9263 137.8789 L143.1554, 142.4661 A0.8504 0.8504 0 0 1 143.1222 143.0054 L142.8226, 143.7453 L142.6542, 144.4566 L142.5942, 145.2011 L142.8976, 152.7548 L143.8693, 160.2581 L145.4950, 167.6160 L146.3005, 169.5461 L147.5167, 171.1095 L149.0719, 172.2946 L150.8758, 173.0489 L152.8378, 173.3204 L154.8740, 173.0579 L156.7687, 172.2671 L158.3320, 171.0510 L159.5172, 169.4958 L160.2714, 167.6918 L160.5430, 165.7299 L160.2755, 163.6556 L158.0045, 156.4706 L155.0944, 149.4867 L151.5803, 142.7933 L151.1561, 142.1785 L150.6545, 141.6467 L150.0251, 141.1558 A0.8504 0.8504 0 0 1 149.7267 140.7053 L149.0873, 138.3191 A0.8504 0.8504 0 0 1 149.9087 137.2486 L163.9192, 137.2486 L163.9192, 116.2982 A0.8504 0.8504 0 0 1 164.7695 115.4478 L169.4695, 115.4478 L169.4695, 104.0835 A0.8504 0.8504 0 0 1 170.3199 103.2331 L174.4200, 103.2331 L174.4200, 83.6742 L91.0820, 83.6742 L91.0820, 103.2331 Z" stroke="black" stroke-width="0.15" fill="none"/>
	<path d="M123.5385, 108.3354 L141.9635, 108.3354 L141.9635, 104.0835 L123.5385, 104.0835 L123.5385, 108.3354 Z" stroke="black" stroke-width="0.15" fill="none"/>
	<path d="M122.6881, 108.3354 A0.8504 0.8504 0 0 0 123.5385 109.1858 L141.9635, 109.1858 A0.8504 0.8504 0 0 0 142.8139 108.3354 L142.8139, 104.0835 A0.8504 0.8504 0 0 0 141.9635 103.2331 L123.5385, 103.2331 A0.8504 0.8504 0 0 0 122.6881 104.0835 L122.6881, 108.3354 Z" stroke="black" stroke-width="0.15" fill="none"/>
	<path d="M124.3889, 107.4850 L141.1131, 107.4850 L141.1131, 104.9339 L124.3889, 104.9339 L124.3889, 107.4850 Z" stroke="black" stroke-width="0.15" fill="none"/>
	<path d="M112.6069, 165.6725 L112.6069, 165.6725 Z" stroke="black" stroke-width="0.15" fill="none"/>
  </g>
</svg>
        