<?xml version="1.0" encoding="UTF-8"?>
<svg viewBox="-116.5066 -259.5498 401.2105 250.9533" xmlns:svgjs="http://svgjs.com/svgjs" xmlns:xlink="http://www.w3.org/1999/xlink" version="1.1" xmlns="http://www.w3.org/2000/svg">
  <g transform="scale(1, -1)">    
    	<circle cx="68.5082" cy="88.0745" r="11.3385" stroke="black" stroke-width="0.15" fill="none"/>
	<circle cx="68.5082" cy="88.0745" r="12.1889" stroke="black" stroke-width="0.15" fill="none"/>
	<circle cx="68.5082" cy="88.0745" r="10.4881" stroke="black" stroke-width="0.15" fill="none"/>
	<circle cx="99.6891" cy="88.0745" r="11.3385" stroke="black" stroke-width="0.15" fill="none"/>
	<circle cx="99.6891" cy="88.0745" r="12.1889" stroke="black" stroke-width="0.15" fill="none"/>
	<circle cx="99.6891" cy="88.0745" r="10.4881" stroke="black" stroke-width="0.15" fill="none"/>
	<path d="M78.4294, 68.2321 L89.7679, 68.2321 L89.7679, 62.5629 L95.4371, 62.5629 L95.4371, 68.2321 L122.3661, 68.2321 L122.3661, 55.4763 L45.8312, 55.4763 L45.8312, 68.2321 L72.7601, 68.2321 L72.7601, 62.5629 L78.4294, 62.5629 L78.4294, 68.2321 Z" stroke="black" stroke-width="0.15" fill="none"/>
	<path d="M77.5790, 68.2321 A0.8504 0.8504 0 0 0 78.4294 69.0825 L89.7679, 69.0825 A0.8504 0.8504 0 0 0 90.6183 68.2321 L90.6183, 63.4133 L94.5867, 63.4133 L94.5867, 68.2321 A0.8504 0.8504 0 0 0 95.4371 69.0825 L122.3661, 69.0825 A0.8504 0.8504 0 0 0 123.2164 68.2321 L123.2164, 55.4763 A0.8504 0.8504 0 0 0 122.3661 54.6259 L45.8312, 54.6259 A0.8504 0.8504 0 0 0 44.9808 55.4763 L44.9808, 68.2321 A0.8504 0.8504 0 0 0 45.8312 69.0825 L72.7601, 69.0825 A0.8504 0.8504 0 0 0 73.6105 68.2321 L73.6105, 63.4133 L77.5790, 63.4133 L77.5790, 68.2321 Z" stroke="black" stroke-width="0.15" fill="none"/>
	<path d="M79.2798, 67.3818 L88.9175, 67.3818 L88.9175, 62.5629 A0.8504 0.8504 0 0 1 89.7679 61.7125 L95.4371, 61.7125 A0.8504 0.8504 0 0 1 96.2875 62.5629 L96.2875, 67.3818 L121.5157, 67.3818 L121.5157, 56.3267 L46.6816, 56.3267 L46.6816, 67.3818 L71.9097, 67.3818 L71.9097, 62.5629 A0.8504 0.8504 0 0 1 72.7601 61.7125 L78.4294, 61.7125 A0.8504 0.8504 0 0 1 79.2798 62.5629 L79.2798, 67.3818 Z" stroke="black" stroke-width="0.15" fill="none"/>
	<path d="M41.5792, 72.4841 L46.5298, 72.4841 L46.5298, 84.6987 L52.0801, 84.6987 L52.0801, 106.4996 L66.9409, 106.4996 L66.3015, 108.8858 A5.6693 5.6693 0 0 0 64.5403 110.7531 A86.2637 86.2637 0 0 0 55.7404 131.8722 A8.5039 8.5039 0 0 0 72.1686 136.2741 A86.2637 86.2637 0 0 0 75.1072 113.5845 A5.6692 5.6692 0 0 0 74.5156 111.0868 L75.7447, 106.4996 L92.4525, 106.4996 L93.6816, 111.0868 A5.6693 5.6693 0 0 0 93.0900 113.5845 A86.2637 86.2637 0 0 0 96.0286 136.2741 A8.5039 8.5039 0 0 0 112.4569 131.8722 A86.2637 86.2637 0 0 0 103.6570 110.7531 A5.6692 5.6692 0 0 0 101.8958 108.8858 L101.2564, 106.4996 L116.1172, 106.4996 L116.1172, 84.6987 L121.6675, 84.6987 L121.6675, 72.4841 L126.6180, 72.4841 L126.6180, 51.2244 L41.5792, 51.2244 L41.5792, 72.4841 Z" stroke="black" stroke-width="0.15" fill="none"/>
	<path d="M40.7289, 72.4841 A0.8504 0.8504 0 0 0 41.5792 73.3345 L45.6794, 73.3345 L45.6794, 84.6987 A0.8504 0.8504 0 0 0 46.5298 85.5491 L51.2297, 85.5491 L51.2297, 106.4996 A0.8504 0.8504 0 0 0 52.0801 107.3500 L65.8326, 107.3500 L65.5600, 108.3675 A6.5196 6.5196 0 0 0 63.8056 110.3248 A87.1141 87.1141 0 0 0 54.9190 131.6521 A9.3543 9.3543 0 0 0 72.9900 136.4942 A87.1141 87.1141 0 0 0 75.9576 113.5810 A6.5196 6.5196 0 0 0 75.4169 111.0087 L76.3973, 107.3500 L91.8000, 107.3500 L92.7803, 111.0087 A6.5196 6.5196 0 0 0 92.2396 113.5810 A87.1141 87.1141 0 0 0 95.2072 136.4942 A9.3543 9.3543 0 0 0 113.2783 131.6521 A87.1141 87.1141 0 0 0 104.3916 110.3248 A6.5196 6.5196 0 0 0 102.6373 108.3675 L102.3646, 107.3500 L116.1172, 107.3500 A0.8504 0.8504 0 0 0 116.9676 106.4996 L116.9676, 85.5491 L121.6675, 85.5491 A0.8504 0.8504 0 0 0 122.5179 84.6987 L122.5179, 73.3345 L126.6180, 73.3345 A0.8504 0.8504 0 0 0 127.4684 72.4841 L127.4684, 51.2244 A0.8504 0.8504 0 0 0 126.6180 50.3740 L41.5792, 50.3740 A0.8504 0.8504 0 0 0 40.7289 51.2244 L40.7289, 72.4841 Z" stroke="black" stroke-width="0.15" fill="none"/>
	<path d="M42.4296, 71.6337 L46.5298, 71.6337 A0.8504 0.8504 0 0 1 47.3802 72.4841 L47.3802, 83.8483 L52.0801, 83.8483 A0.8504 0.8504 0 0 1 52.9305 84.6987 L52.9305, 105.6492 L66.9409, 105.6492 A0.8504 0.8504 0 0 1 67.7623 106.7197 L67.1229, 109.1059 A0.8504 0.8504 0 0 1 66.7720 109.5942 A4.8189 4.8189 0 0 0 65.2749 111.1814 A85.4133 85.4133 0 0 0 56.5618 132.0923 A7.6535 7.6535 0 0 0 71.3472 136.0540 A85.4133 85.4133 0 0 0 74.2568 113.5881 A4.8189 4.8189 0 0 0 73.7540 111.4650 A0.8504 0.8504 0 0 1 73.6942 110.8667 L74.9233, 106.2795 A0.8504 0.8504 0 0 1 75.7447 105.6492 L92.4525, 105.6492 A0.8504 0.8504 0 0 1 93.2739 106.2795 L94.5030, 110.8667 A0.8504 0.8504 0 0 1 94.4433 111.4650 A4.8189 4.8189 0 0 0 93.9404 113.5881 A85.4133 85.4133 0 0 0 96.8500 136.0540 A7.6535 7.6535 0 0 0 111.6354 132.0923 A85.4133 85.4133 0 0 0 102.9223 111.1814 A4.8189 4.8189 0 0 0 101.4253 109.5942 A0.8504 0.8504 0 0 1 101.0743 109.1059 L100.4349, 106.7197 A0.8504 0.8504 0 0 1 101.2564 105.6492 L115.2668, 105.6492 L115.2668, 84.6987 A0.8504 0.8504 0 0 1 116.1172 83.8483 L120.8171, 83.8483 L120.8171, 72.4841 A0.8504 0.8504 0 0 1 121.6675 71.6337 L125.7676, 71.6337 L125.7676, 52.0748 L42.4296, 52.0748 L42.4296, 71.6337 Z" stroke="black" stroke-width="0.15" fill="none"/>
	<path d="M74.8861, 76.7360 L93.3111, 76.7360 L93.3111, 72.4841 L74.8861, 72.4841 L74.8861, 76.7360 Z" stroke="black" stroke-width="0.15" fill="none"/>
	<path d="M74.0357, 76.7360 A0.8504 0.8504 0 0 0 74.8861 77.5864 L93.3111, 77.5864 A0.8504 0.8504 0 0 0 94.1615 76.7360 L94.1615, 72.4841 A0.8504 0.8504 0 0 0 93.3111 71.6337 L74.8861, 71.6337 A0.8504 0.8504 0 0 0 74.0357 72.4841 L74.0357, 76.7360 Z" stroke="black" stroke-width="0.15" fill="none"/>
	<path d="M75.7365, 75.8856 L92.4608, 75.8856 L92.4608, 73.3345 L75.7365, 73.3345 L75.7365, 75.8856 Z" stroke="black" stroke-width="0.15" fill="none"/>
  </g>
</svg>
        