  0
SECTION
  2
HEADER
  9
$ACADVER
  1
AC1024
  9
$ACADMAINTVER
 70
6
  9
$DWGCODEPAGE
  3
ANSI_1252
  9
$LASTSAVEDBY
  1
ezdxf
  9
$INSBASE
 10
0.0
 20
0.0
 30
0.0
  9
$EXTMIN
 10
1e+20
 20
1e+20
 30
1e+20
  9
$EXTMAX
 10
-1e+20
 20
-1e+20
 30
-1e+20
  9
$LIMMIN
 10
0.0
 20
0.0
  9
$LIMMAX
 10
420.0
 20
297.0
  9
$ORTHOMODE
 70
0
  9
$REGENMODE
 70
1
  9
$FILLMODE
 70
1
  9
$QTEXTMODE
 70
0
  9
$MIRRTEXT
 70
1
  9
$LTSCALE
 40
1.0
  9
$ATTMODE
 70
1
  9
$TEXTSIZE
 40
2.5
  9
$TRACEWID
 40
1.0
  9
$TEXTSTYLE
  7
Standard
  9
$CLAYER
  8
0
  9
$CELTYPE
  6
ByLayer
  9
$CECOLOR
 62
256
  9
$CELTSCALE
 40
1.0
  9
$DISPSILH
 70
0
  9
$DIMSCALE
 40
1.0
  9
$DIMASZ
 40
2.5
  9
$DIMEXO
 40
0.625
  9
$DIMDLI
 40
3.75
  9
$DIMRND
 40
0.0
  9
$DIMDLE
 40
0.0
  9
$DIMEXE
 40
1.25
  9
$DIMTP
 40
0.0
  9
$DIMTM
 40
0.0
  9
$DIMTXT
 40
2.5
  9
$DIMCEN
 40
2.5
  9
$DIMTSZ
 40
0.0
  9
$DIMTOL
 70
0
  9
$DIMLIM
 70
0
  9
$DIMTIH
 70
0
  9
$DIMTOH
 70
0
  9
$DIMSE1
 70
0
  9
$DIMSE2
 70
0
  9
$DIMTAD
 70
1
  9
$DIMZIN
 70
8
  9
$DIMBLK
  1

  9
$DIMASO
 70
1
  9
$DIMSHO
 70
1
  9
$DIMPOST
  1

  9
$DIMAPOST
  1

  9
$DIMALT
 70
0
  9
$DIMALTD
 70
3
  9
$DIMALTF
 40
0.03937007874
  9
$DIMLFAC
 40
1.0
  9
$DIMTOFL
 70
1
  9
$DIMTVP
 40
0.0
  9
$DIMTIX
 70
0
  9
$DIMSOXD
 70
0
  9
$DIMSAH
 70
0
  9
$DIMBLK1
  1

  9
$DIMBLK2
  1

  9
$DIMSTYLE
  2
ISO-25
  9
$DIMCLRD
 70
0
  9
$DIMCLRE
 70
0
  9
$DIMCLRT
 70
0
  9
$DIMTFAC
 40
1.0
  9
$DIMGAP
 40
0.625
  9
$DIMJUST
 70
0
  9
$DIMSD1
 70
0
  9
$DIMSD2
 70
0
  9
$DIMTOLJ
 70
0
  9
$DIMTZIN
 70
8
  9
$DIMALTZ
 70
0
  9
$DIMALTTZ
 70
0
  9
$DIMUPT
 70
0
  9
$DIMDEC
 70
2
  9
$DIMTDEC
 70
2
  9
$DIMALTU
 70
2
  9
$DIMALTTD
 70
3
  9
$DIMTXSTY
  7
Standard
  9
$DIMAUNIT
 70
0
  9
$DIMADEC
 70
0
  9
$DIMALTRND
 40
0.0
  9
$DIMAZIN
 70
0
  9
$DIMDSEP
 70
44
  9
$DIMATFIT
 70
3
  9
$DIMFRAC
 70
0
  9
$DIMLDRBLK
  1

  9
$DIMLUNIT
 70
2
  9
$DIMLWD
 70
-2
  9
$DIMLWE
 70
-2
  9
$DIMTMOVE
 70
0
  9
$DIMFXL
 40
1.0
  9
$DIMFXLON
 70
0
  9
$DIMJOGANG
 40
0.785398163397
  9
$DIMTFILL
 70
0
  9
$DIMTFILLCLR
 70
0
  9
$DIMARCSYM
 70
0
  9
$DIMLTYPE
  6

  9
$DIMLTEX1
  6

  9
$DIMLTEX2
  6

  9
$DIMTXTDIRECTION
 70
0
  9
$LUNITS
 70
2
  9
$LUPREC
 70
4
  9
$SKETCHINC
 40
1.0
  9
$FILLETRAD
 40
10.0
  9
$AUNITS
 70
0
  9
$AUPREC
 70
2
  9
$MENU
  1
.
  9
$ELEVATION
 40
0.0
  9
$PELEVATION
 40
0.0
  9
$THICKNESS
 40
0.0
  9
$LIMCHECK
 70
0
  9
$CHAMFERA
 40
0.0
  9
$CHAMFERB
 40
0.0
  9
$CHAMFERC
 40
0.0
  9
$CHAMFERD
 40
0.0
  9
$SKPOLY
 70
0
  9
$TDCREATE
 40
2460012.342488426
  9
$TDUCREATE
 40
2458532.153996898
  9
$TDUPDATE
 40
2460012.342488426
  9
$TDUUPDATE
 40
2458532.1544311
  9
$TDINDWG
 40
0.0
  9
$TDUSRTIMER
 40
0.0
  9
$USRTIMER
 70
1
  9
$ANGBASE
 50
0.0
  9
$ANGDIR
 70
0
  9
$PDMODE
 70
0
  9
$PDSIZE
 40
0.0
  9
$PLINEWID
 40
0.0
  9
$SPLFRAME
 70
0
  9
$SPLINETYPE
 70
6
  9
$SPLINESEGS
 70
8
  9
$HANDSEED
  5
43
  9
$SURFTAB1
 70
6
  9
$SURFTAB2
 70
6
  9
$SURFTYPE
 70
6
  9
$SURFU
 70
6
  9
$SURFV
 70
6
  9
$UCSBASE
  2

  9
$UCSNAME
  2

  9
$UCSORG
 10
0.0
 20
0.0
 30
0.0
  9
$UCSXDIR
 10
1.0
 20
0.0
 30
0.0
  9
$UCSYDIR
 10
0.0
 20
1.0
 30
0.0
  9
$UCSORTHOREF
  2

  9
$UCSORTHOVIEW
 70
0
  9
$UCSORGTOP
 10
0.0
 20
0.0
 30
0.0
  9
$UCSORGBOTTOM
 10
0.0
 20
0.0
 30
0.0
  9
$UCSORGLEFT
 10
0.0
 20
0.0
 30
0.0
  9
$UCSORGRIGHT
 10
0.0
 20
0.0
 30
0.0
  9
$UCSORGFRONT
 10
0.0
 20
0.0
 30
0.0
  9
$UCSORGBACK
 10
0.0
 20
0.0
 30
0.0
  9
$PUCSBASE
  2

  9
$PUCSNAME
  2

  9
$PUCSORG
 10
0.0
 20
0.0
 30
0.0
  9
$PUCSXDIR
 10
1.0
 20
0.0
 30
0.0
  9
$PUCSYDIR
 10
0.0
 20
1.0
 30
0.0
  9
$PUCSORTHOREF
  2

  9
$PUCSORTHOVIEW
 70
0
  9
$PUCSORGTOP
 10
0.0
 20
0.0
 30
0.0
  9
$PUCSORGBOTTOM
 10
0.0
 20
0.0
 30
0.0
  9
$PUCSORGLEFT
 10
0.0
 20
0.0
 30
0.0
  9
$PUCSORGRIGHT
 10
0.0
 20
0.0
 30
0.0
  9
$PUCSORGFRONT
 10
0.0
 20
0.0
 30
0.0
  9
$PUCSORGBACK
 10
0.0
 20
0.0
 30
0.0
  9
$USERI1
 70
0
  9
$USERI2
 70
0
  9
$USERI3
 70
0
  9
$USERI4
 70
0
  9
$USERI5
 70
0
  9
$USERR1
 40
0.0
  9
$USERR2
 40
0.0
  9
$USERR3
 40
0.0
  9
$USERR4
 40
0.0
  9
$USERR5
 40
0.0
  9
$WORLDVIEW
 70
1
  9
$SHADEDGE
 70
3
  9
$SHADEDIF
 70
70
  9
$TILEMODE
 70
1
  9
$MAXACTVP
 70
64
  9
$PINSBASE
 10
0.0
 20
0.0
 30
0.0
  9
$PLIMCHECK
 70
0
  9
$PEXTMIN
 10
1e+20
 20
1e+20
 30
1e+20
  9
$PEXTMAX
 10
-1e+20
 20
-1e+20
 30
-1e+20
  9
$PLIMMIN
 10
0.0
 20
0.0
  9
$PLIMMAX
 10
420.0
 20
297.0
  9
$UNITMODE
 70
0
  9
$VISRETAIN
 70
1
  9
$PLINEGEN
 70
0
  9
$PSLTSCALE
 70
1
  9
$TREEDEPTH
 70
3020
  9
$CMLSTYLE
  2
Standard
  9
$CMLJUST
 70
0
  9
$CMLSCALE
 40
20.0
  9
$PROXYGRAPHICS
 70
1
  9
$MEASUREMENT
 70
1
  9
$CELWEIGHT
370
-1
  9
$ENDCAPS
280
0
  9
$JOINSTYLE
280
0
  9
$LWDISPLAY
290
0
  9
$INSUNITS
 70
6
  9
$HYPERLINKBASE
  1

  9
$STYLESHEET
  1

  9
$XEDIT
290
1
  9
$CEPSNTYPE
380
0
  9
$PSTYLEMODE
290
1
  9
$FINGERPRINTGUID
  2
{78336BB6-9B0D-4F31-A9DF-73D5E1E0865D}
  9
$VERSIONGUID
  2
{E3D4C500-E140-4FA3-A37B-5615BE16C939}
  9
$EXTNAMES
290
1
  9
$PSVPSCALE
 40
0.0
  9
$OLESTARTUP
290
0
  9
$SORTENTS
280
127
  9
$INDEXCTL
280
0
  9
$HIDETEXT
280
1
  9
$XCLIPFRAME
280
0
  9
$HALOGAP
280
0
  9
$OBSCOLOR
 70
257
  9
$OBSLTYPE
280
0
  9
$INTERSECTIONDISPLAY
280
0
  9
$INTERSECTIONCOLOR
 70
257
  9
$DIMASSOC
280
2
  9
$PROJECTNAME
  1

  9
$CAMERADISPLAY
290
0
  9
$LENSLENGTH
 40
50.0
  9
$CAMERAHEIGHT
 40
0.0
  9
$STEPSPERSEC
 40
24.0
  9
$STEPSIZE
 40
100.0
  9
$3DDWFPREC
 40
2.0
  9
$PSOLWIDTH
 40
0.005
  9
$PSOLHEIGHT
 40
0.08
  9
$LOFTANG1
 40
1.570796326795
  9
$LOFTANG2
 40
1.570796326795
  9
$LOFTMAG1
 40
0.0
  9
$LOFTMAG2
 40
0.0
  9
$LOFTPARAM
 70
7
  9
$LOFTNORMALS
280
1
  9
$LATITUDE
 40
37.795
  9
$LONGITUDE
 40
-122.394
  9
$NORTHDIRECTION
 40
0.0
  9
$TIMEZONE
 70
-8000
  9
$LIGHTGLYPHDISPLAY
280
1
  9
$TILEMODELIGHTSYNCH
280
1
  9
$CMATERIAL
347
20
  9
$SOLIDHIST
280
0
  9
$SHOWHIST
280
1
  9
$DWFFRAME
280
2
  9
$DGNFRAME
280
2
  9
$REALWORLDSCALE
290
1
  9
$INTERFERECOLOR
 62
256
  9
$CSHADOW
280
0
  9
$SHADOWPLANELOCATION
 40
0.0
  0
ENDSEC
  0
SECTION
  2
CLASSES
  0
CLASS
  1
ACDBDICTIONARYWDFLT
  2
AcDbDictionaryWithDefault
  3
ObjectDBX Classes
 90
0
 91
0
280
0
281
0
  0
CLASS
  1
SUN
  2
AcDbSun
  3
SCENEOE
 90
1153
 91
0
280
0
281
0
  0
CLASS
  1
VISUALSTYLE
  2
AcDbVisualStyle
  3
ObjectDBX Classes
 90
4095
 91
0
280
0
281
0
  0
CLASS
  1
MATERIAL
  2
AcDbMaterial
  3
ObjectDBX Classes
 90
1153
 91
0
280
0
281
0
  0
CLASS
  1
SCALE
  2
AcDbScale
  3
ObjectDBX Classes
 90
1153
 91
0
280
0
281
0
  0
CLASS
  1
TABLESTYLE
  2
AcDbTableStyle
  3
ObjectDBX Classes
 90
4095
 91
0
280
0
281
0
  0
CLASS
  1
MLEADERSTYLE
  2
AcDbMLeaderStyle
  3
ACDB_MLEADERSTYLE_CLASS
 90
4095
 91
0
280
0
281
0
  0
CLASS
  1
DICTIONARYVAR
  2
AcDbDictionaryVar
  3
ObjectDBX Classes
 90
0
 91
0
280
0
281
0
  0
CLASS
  1
CELLSTYLEMAP
  2
AcDbCellStyleMap
  3
ObjectDBX Classes
 90
1152
 91
0
280
0
281
0
  0
CLASS
  1
MENTALRAYRENDERSETTINGS
  2
AcDbMentalRayRenderSettings
  3
SCENEOE
 90
1024
 91
0
280
0
281
0
  0
CLASS
  1
ACDBDETAILVIEWSTYLE
  2
AcDbDetailViewStyle
  3
ObjectDBX Classes
 90
1025
 91
0
280
0
281
0
  0
CLASS
  1
ACDBSECTIONVIEWSTYLE
  2
AcDbSectionViewStyle
  3
ObjectDBX Classes
 90
1025
 91
0
280
0
281
0
  0
CLASS
  1
RASTERVARIABLES
  2
AcDbRasterVariables
  3
ISM
 90
0
 91
0
280
0
281
0
  0
CLASS
  1
LAYOUT
  2
AcDbLayout
  3
ObjectDBX Classes
 90
0
 91
0
280
0
281
0
  0
CLASS
  1
ACDBPLACEHOLDER
  2
AcDbPlaceHolder
  3
ObjectDBX Classes
 90
0
 91
0
280
0
281
0
  0
ENDSEC
  0
SECTION
  2
TABLES
  0
TABLE
  2
VPORT
  5
8
330
0
100
AcDbSymbolTable
 70
1
  0
VPORT
  5
23
330
8
100
AcDbSymbolTableRecord
100
AcDbViewportTableRecord
  2
*Active
 70
0
 10
0.0
 20
0.0
 11
1.0
 21
1.0
 12
0.0
 22
0.0
 13
0.0
 23
0.0
 14
0.5
 24
0.5
 15
0.5
 25
0.5
 16
0.0
 26
0.0
 36
1.0
 17
0.0
 27
0.0
 37
0.0
 40
1000.0
 41
1.34
 42
50.0
 43
0.0
 44
0.0
 50
0.0
 51
0.0
 71
0
 72
1000
 73
1
 74
3
 75
0
 76
0
 77
0
 78
0
281
0
 65
0
146
0.0
  0
ENDTAB
  0
TABLE
  2
LTYPE
  5
2
330
0
100
AcDbSymbolTable
 70
3
  0
LTYPE
  5
24
330
2
100
AcDbSymbolTableRecord
100
AcDbLinetypeTableRecord
  2
ByBlock
 70
0
  3

 72
65
 73
0
 40
0.0
  0
LTYPE
  5
25
330
2
100
AcDbSymbolTableRecord
100
AcDbLinetypeTableRecord
  2
ByLayer
 70
0
  3

 72
65
 73
0
 40
0.0
  0
LTYPE
  5
26
330
2
100
AcDbSymbolTableRecord
100
AcDbLinetypeTableRecord
  2
Continuous
 70
0
  3

 72
65
 73
0
 40
0.0
  0
ENDTAB
  0
TABLE
  2
LAYER
  5
1
330
0
100
AcDbSymbolTable
 70
3
  0
LAYER
  5
27
330
1
100
AcDbSymbolTableRecord
100
AcDbLayerTableRecord
  2
0
 70
0
 62
7
  6
Continuous
370
-3
390
13
347
21
  0
LAYER
  5
28
330
1
100
AcDbSymbolTableRecord
100
AcDbLayerTableRecord
  2
Defpoints
 70
0
 62
7
  6
Continuous
290
0
370
-3
390
13
347
21
  0
LAYER
  5
2F
330
1
100
AcDbSymbolTableRecord
100
AcDbLayerTableRecord
  2
LASERCUT
 70
0
 62
7
  6
Continuous
370
-3
390
13
347
21
  0
ENDTAB
  0
TABLE
  2
STYLE
  5
5
330
0
100
AcDbSymbolTable
 70
1
  0
STYLE
  5
29
330
5
100
AcDbSymbolTableRecord
100
AcDbTextStyleTableRecord
  2
Standard
 70
0
 40
0.0
 41
1.0
 50
0.0
 71
0
 42
2.5
  3
txt
  4

  0
ENDTAB
  0
TABLE
  2
VIEW
  5
7
330
0
100
AcDbSymbolTable
 70
0
  0
ENDTAB
  0
TABLE
  2
UCS
  5
6
330
0
100
AcDbSymbolTable
 70
0
  0
ENDTAB
  0
TABLE
  2
APPID
  5
3
330
0
100
AcDbSymbolTable
 70
3
  0
APPID
  5
2A
330
3
100
AcDbSymbolTableRecord
100
AcDbRegAppTableRecord
  2
ACAD
 70
0
  0
APPID
  5
40
330
3
100
AcDbSymbolTableRecord
100
AcDbRegAppTableRecord
  2
HATCHBACKGROUNDCOLOR
 70
0
  0
APPID
  5
41
330
3
100
AcDbSymbolTableRecord
100
AcDbRegAppTableRecord
  2
EZDXF
 70
0
  0
ENDTAB
  0
TABLE
  2
DIMSTYLE
  5
4
330
0
100
AcDbSymbolTable
 70
1
100
AcDbDimStyleTable
  0
DIMSTYLE
105
2B
330
4
100
AcDbSymbolTableRecord
100
AcDbDimStyleTableRecord
  2
Standard
 70
0
 40
1.0
 41
2.5
 42
0.625
 43
3.75
 44
1.25
 45
0.0
 46
0.0
 47
0.0
 48
0.0
 49
2.5
140
2.5
141
2.5
142
0.0
143
0.03937007874
144
1.0
145
0.0
146
1.0
147
0.625
148
0.0
 69
0
 70
0
 71
0
 72
0
 73
0
 74
0
 75
0
 76
0
 77
1
 78
8
 79
3
170
0
171
3
172
1
173
0
174
0
175
0
176
0
177
0
178
0
179
2
271
2
272
2
273
2
274
3
275
0
276
0
277
2
278
44
279
0
280
0
281
0
282
0
283
0
284
8
285
0
286
0
288
0
289
3
290
0
371
-2
372
-2
  0
ENDTAB
  0
TABLE
  2
BLOCK_RECORD
  5
9
330
0
100
AcDbSymbolTable
 70
2
  0
BLOCK_RECORD
  5
17
330
9
100
AcDbSymbolTableRecord
100
AcDbBlockTableRecord
  2
*Model_Space
340
1A
 70
0
280
1
281
0
  0
BLOCK_RECORD
  5
1B
330
9
100
AcDbSymbolTableRecord
100
AcDbBlockTableRecord
  2
*Paper_Space
340
1E
 70
0
280
1
281
0
  0
ENDTAB
  0
ENDSEC
  0
SECTION
  2
BLOCKS
  0
BLOCK
  5
18
330
17
100
AcDbEntity
  8
0
100
AcDbBlockBegin
  2
*Model_Space
 70
0
 10
0.0
 20
0.0
 30
0.0
  3
*Model_Space
  1

  0
ENDBLK
  5
19
330
17
100
AcDbEntity
  8
0
100
AcDbBlockEnd
  0
BLOCK
  5
1C
330
1B
100
AcDbEntity
  8
0
100
AcDbBlockBegin
  2
*Paper_Space
 70
0
 10
0.0
 20
0.0
 30
0.0
  3
*Paper_Space
  1

  0
ENDBLK
  5
1D
330
1B
100
AcDbEntity
  8
0
100
AcDbBlockEnd
  0
ENDSEC
  0
SECTION
  2
ENTITIES
  0
CIRCLE
  5
30
330
17
100
AcDbEntity
  8
LASERCUT
100
AcDbCircle
 10
41.33194443411141
 20
-42.21861340911231
 30
0.0
 40
3.999999999000093
  0
CIRCLE
  5
31
330
17
100
AcDbEntity
  8
LASERCUT
100
AcDbCircle
 10
41.33194443411141
 20
-42.21861340911231
 30
0.0
 40
4.299999999000093
  0
CIRCLE
  5
32
330
17
100
AcDbEntity
  8
LASERCUT
100
AcDbCircle
 10
41.33194443411141
 20
-42.21861340911231
 30
0.0
 40
3.6999999990000934
  0
CIRCLE
  5
33
330
17
100
AcDbEntity
  8
LASERCUT
100
AcDbCircle
 10
52.33194443136131
 20
-42.21861340911231
 30
0.0
 40
3.999999999000013
  0
CIRCLE
  5
34
330
17
100
AcDbEntity
  8
LASERCUT
100
AcDbCircle
 10
52.33194443136131
 20
-42.21861340911231
 30
0.0
 40
4.299999999000013
  0
CIRCLE
  5
35
330
17
100
AcDbEntity
  8
LASERCUT
100
AcDbCircle
 10
52.33194443136131
 20
-42.21861340911231
 30
0.0
 40
3.699999999000013
  0
LWPOLYLINE
  5
36
330
17
100
AcDbEntity
  8
LASERCUT
100
AcDbPolyline
 90
13
 70
0
 10
44.83194443323625
 20
-35.2186134108627
 10
48.83194443223662
 20
-35.2186134108627
 10
48.83194443223662
 20
-33.21861341136251
 10
50.83194443173617
 20
-33.21861341136251
 10
50.83194443173617
 20
-35.2186134108627
 10
60.33194442936189
 20
-35.2186134108627
 10
60.33194442936189
 20
-30.71861341198776
 10
33.3319444361113
 20
-30.71861341198776
 10
33.3319444361113
 20
-35.2186134108627
 10
42.83194443373639
 20
-35.2186134108627
 10
42.83194443373639
 20
-33.21861341136251
 10
44.83194443323625
 20
-33.21861341136251
 10
44.83194443323625
 20
-35.2186134108627
  0
LWPOLYLINE
  5
37
330
17
100
AcDbEntity
  8
LASERCUT
100
AcDbPolyline
 90
21
 70
0
 10
44.531944433236255
 20
-35.2186134108627
 42
0.41421356237308943
 10
44.83194443323625
 20
-35.5186134108627
 10
48.83194443223662
 20
-35.5186134108627
 42
0.41421356237308943
 10
49.131944432236615
 20
-35.2186134108627
 10
49.131944432236615
 20
-33.51861341136251
 10
50.53194443173617
 20
-33.51861341136251
 10
50.53194443173617
 20
-35.2186134108627
 42
0.41421356237308943
 10
50.83194443173617
 20
-35.5186134108627
 10
60.33194442936189
 20
-35.5186134108627
 42
0.41421356237308943
 10
60.63194442936189
 20
-35.2186134108627
 10
60.63194442936189
 20
-30.71861341198776
 42
0.4142135623730929
 10
60.33194442936189
 20
-30.41861341198776
 10
33.3319444361113
 20
-30.41861341198776
 42
0.4142135623730929
 10
33.0319444361113
 20
-30.71861341198776
 10
33.0319444361113
 20
-35.2186134108627
 42
0.41421356237308943
 10
33.3319444361113
 20
-35.5186134108627
 10
42.83194443373639
 20
-35.5186134108627
 42
0.41421356237308943
 10
43.131944433736386
 20
-35.2186134108627
 10
43.131944433736386
 20
-33.51861341136251
 10
44.531944433236255
 20
-33.51861341136251
 10
44.531944433236255
 20
-35.2186134108627
  0
LWPOLYLINE
  5
38
330
17
100
AcDbEntity
  8
LASERCUT
100
AcDbPolyline
 90
17
 70
0
 10
45.13194443323625
 20
-34.918613410862704
 10
48.53194443223662
 20
-34.918613410862704
 10
48.53194443223662
 20
-33.21861341136251
 42
-0.41421356237308943
 10
48.83194443223662
 20
-32.918613411362514
 10
50.83194443173617
 20
-32.918613411362514
 42
-0.41421356237308943
 10
51.131944431736166
 20
-33.21861341136251
 10
51.131944431736166
 20
-34.918613410862704
 10
60.03194442936189
 20
-34.918613410862704
 10
60.03194442936189
 20
-31.01861341198776
 10
33.6319444361113
 20
-31.01861341198776
 10
33.6319444361113
 20
-34.918613410862704
 10
42.53194443373639
 20
-34.918613410862704
 10
42.53194443373639
 20
-33.21861341136251
 42
-0.41421356237308943
 10
42.83194443373639
 20
-32.918613411362514
 10
44.83194443323625
 20
-32.918613411362514
 42
-0.41421356237308943
 10
45.13194443323625
 20
-33.21861341136251
 10
45.13194443323625
 20
-34.918613410862704
  0
LWPOLYLINE
  5
39
330
17
100
AcDbEntity
  8
LASERCUT
100
AcDbPolyline
 90
67
 70
0
 10
31.83194443648632
 20
-36.71861341048704
 10
33.57839107184977
 20
-36.71861341048704
 10
33.57839107184977
 20
-41.02770432055989
 10
35.53643122621028
 20
-41.02770432055989
 10
35.53643122621028
 20
-48.71861340748751
 10
40.77903016364956
 20
-48.71861340748751
 10
40.55346605355586
 20
-49.56043012677723
 10
40.31338676835688
 20
-49.7477035562154
 10
40.10506766479163
 20
-49.96857076642008
 10
39.93214051580624
 20
-50.2191812244744
 10
38.677822049842405
 20
-52.60830334507796
 10
37.64097398466717
 20
-55.09665965623655
 10
36.82771620524948
 20
-57.66956290068627
 10
36.7248145535916
 20
-58.4676427409728
 10
36.83145499515618
 20
-59.23813584138472
 10
37.12741747265914
 20
-59.94602003538064
 10
37.592481928845594
 20
-60.55627315646318
 10
38.206428306460644
 20
-61.03387303813491
 10
38.9490365482494
 20
-61.34379751389844
 10
39.747116388580025
 20
-61.446699165526994
 10
40.51760948899202
 20
-61.34005872396232
 10
41.22549368298801
 20
-61.044096246459304
 10
41.835746804070574
 20
-60.579031790272836
 10
42.313346685742324
 20
-59.96508541265777
 10
42.62327116150585
 20
-59.222477170869
 10
43.205420886950236
 20
-56.58764870999245
 10
43.55166227822317
 20
-53.91424489827435
 10
43.65995168252081
 20
-51.21804521612906
 10
43.63549760750733
 20
-50.91454661850557
 10
43.56552157682869
 20
-50.61911045182251
 10
43.45124353166911
 20
-50.33688726188802
 10
43.88485870412316
 20
-48.71861340748751
 10
49.77903016139944
 20
-48.71861340748751
 10
50.21264533384162
 20
-50.33688726193293
 10
50.09836728864432
 20
-50.61911045182251
 10
50.028391257965524
 20
-50.91454661850558
 10
50.00393718296779
 20
-51.21804521612745
 10
50.11222658729922
 20
-53.91424489827425
 10
50.458467978572074
 20
-56.58764870999254
 10
51.04061770399623
 20
-59.22247717087478
 10
51.35054217973062
 20
-59.96508541265776
 10
51.828142061402176
 20
-60.57903179027283
 10
52.4383951824846
 20
-61.04409624645931
 10
53.14627937648047
 20
-61.34005872396232
 10
53.916772476892355
 20
-61.44669916552699
 10
54.71485231722284
 20
-61.34379751389844
 10
55.45746055901189
 20
-61.03387303813491
 10
56.071406936627184
 20
-60.55627315646318
 10
56.53647139281382
 20
-59.94602003538065
 10
56.83243387031693
 20
-59.23813584138472
 10
56.93907431188159
 20
-58.46764274097281
 10
56.83617266025291
 20
-57.66956290064231
 10
56.02291488085562
 20
-55.0966596562364
 10
54.98606681568047
 20
-52.60830334507789
 10
53.73174834969006
 20
-50.21918122451547
 10
53.55882120068094
 20
-49.968570766420065
 10
53.350502097115594
 20
-49.7477035562154
 10
53.11042281194493
 20
-49.56043012677499
 10
52.88485870187273
 20
-48.71861340748751
 10
58.12745763931233
 20
-48.71861340748751
 10
58.12745763931233
 20
-41.02770432055989
 10
60.08549779367316
 20
-41.02770432055989
 10
60.08549779367316
 20
-36.71861341048704
 10
61.83194442898624
 20
-36.71861341048704
 10
61.83194442898624
 20
-29.21861341236214
 10
31.83194443648632
 20
-29.21861341236214
 10
31.83194443648632
 20
-36.71861341048704
  0
LWPOLYLINE
  5
3A
330
17
100
AcDbEntity
  8
LASERCUT
100
AcDbPolyline
 90
121
 70
0
 10
31.53194443648632
 20
-36.71861341048704
 42
0.4142135623730929
 10
31.83194443648632
 20
-37.018613410487035
 10
33.278391071849775
 20
-37.018613410487035
 10
33.278391071849775
 20
-41.02770432055989
 42
0.41421356237308943
 10
33.57839107184977
 20
-41.32770432055989
 10
35.236431226210286
 20
-41.32770432055989
 10
35.236431226210286
 20
-48.71861340748751
 42
0.41421356237308943
 10
35.53643122621028
 20
-49.01861340748751
 10
40.38806255180393
 20
-49.01861340748751
 10
40.289701391447764
 20
-49.38570225545255
 10
40.12887013083705
 20
-49.51115840095244
 42
0.038060989240338024
 10
40.095145892702384
 20
-49.541861577519214
 10
39.88682678913714
 20
-49.762728787723894
 42
0.03806098922439056
 10
39.85814636266458
 20
-49.79818922236122
 10
39.68521921367918
 20
-50.04879968041554
 42
0.03014472174848403
 10
39.666522488049864
 20
-50.07972849653115
 10
38.41220402208603
 20
-52.46885061713471
 42
0.022167188625146435
 10
38.40090027422573
 20
-52.492915606607596
 10
37.36405220905049
 20
-54.981271917766186
 42
0.022167188629114973
 10
37.35492352307241
 20
-55.00624321181727
 10
36.54166574365472
 20
-57.579146456267
 42
0.04450912894228246
 10
36.530179231888354
 20
-57.631199513412696
 10
36.427277580230474
 20
-58.42927935369922
 42
0.06653812854448278
 10
36.42764732945293
 20
-58.50877230330597
 10
36.53428777101751
 20
-59.279265403717886
 42
0.06470894273165267
 10
36.55467242895778
 20
-59.35385710584648
 10
36.85063490646074
 20
-60.0617412998424
 42
0.06388252403302397
 10
36.88880863477799
 20
-60.12786013680221
 10
37.35387309096444
 20
-60.73811325788475
 42
0.06470894273164902
 10
37.408279070949185
 20
-60.79306274057277
 10
38.022225448564235
 20
-61.2706626222445
 42
0.06653812853367592
 10
38.09088348772229
 20
-61.310729309262584
 10
38.833491729511046
 20
-61.620653785026114
 42
0.06688462735352439
 10
38.910673160988665
 20
-61.64133448726122
 10
39.70875300131929
 20
-61.744236138889775
 42
0.06653812853367054
 10
39.78824595091322
 20
-61.743866389665655
 10
40.55873905132522
 20
-61.63722594810098
 42
0.06470894273164117
 10
40.6333307534538
 20
-61.616841290160714
 10
41.341214947449785
 20
-61.320878812657696
 42
0.06388252403301106
 10
41.40733378440958
 20
-61.282705084340456
 10
42.017586905492145
 20
-60.81764062815399
 42
0.06470894273164902
 10
42.07253638818017
 20
-60.763234648169245
 10
42.55013626985192
 20
-60.14928827055418
 42
0.06653812853368198
 10
42.59020295687
 20
-60.08063023139612
 10
42.900127432633525
 20
-59.33802198960735
 42
0.04450912895110429
 10
42.91620635022031
 20
-59.28719946388173
 10
43.498356075664695
 20
-56.65237100300518
 42
0.02216718863107126
 10
43.502936048730554
 20
-56.62618088500024
 10
43.84917744000349
 20
-53.952777073282135
 42
0.022167188629105036
 10
43.851420601935125
 20
-53.92628430712192
 10
43.95971000623277
 20
-51.230084624976634
 42
0.03014472175693601
 10
43.95898257492661
 20
-51.19395112168679
 10
43.93452849991313
 20
-50.89045252406329
 42
0.038060989211860824
 10
43.92742073931641
 20
-50.84540267361681
 10
43.857444708637765
 20
-50.54996650693375
 42
0.038060989224396886
 10
43.843590249980444
 20
-50.50651465700041
 10
43.76703436533513
 20
-50.31745081763663
 10
44.115056800512036
 20
-49.01861340748751
 10
49.54883206500728
 20
-49.01861340748751
 10
49.89685450016912
 20
-50.317450817651974
 10
49.820298615511724
 20
-50.50651465695309
 42
0.03806098926689009
 10
49.80644415683527
 20
-50.549966506933615
 10
49.736468126156474
 20
-50.84540267361669
 42
0.0380609892247712
 10
49.7293603655585
 20
-50.89045252407859
 10
49.704906290560764
 20
-51.19395112170046
 42
0.030144721747265395
 10
49.70417885925598
 20
-51.23008462497876
 10
49.81246826358741
 20
-53.926284307125556
 42
0.022167188625977073
 10
49.8147114255189
 20
-53.95277707328202
 10
50.160952816791756
 20
-56.626180885000316
 42
0.022167188629134357
 10
50.16553278985711
 20
-56.65237100300299
 10
50.74768251528127
 20
-59.28719946388523
 42
0.04450912894537853
 10
50.76376143286502
 20
-59.33802198960465
 10
51.0736859085994
 20
-60.08063023138762
 42
0.06653812854132903
 10
51.11375259562099
 20
-60.14928827055412
 10
51.591352477292546
 20
-60.763234648169195
 42
0.06470894273166528
 10
51.646301959980576
 20
-60.81764062815396
 10
52.256555081063
 20
-61.28270508434044
 42
0.06388252403302827
 10
52.32267391802281
 20
-61.320878812657696
 10
53.03055811201868
 20
-61.61684129016071
 42
0.06470894273164823
 10
53.10514981414727
 20
-61.63722594810098
 10
53.87564291455915
 20
-61.74386638966565
 42
0.0665381285336824
 10
53.9551358641531
 20
-61.74423613888976
 10
54.75321570448359
 20
-61.64133448726121
 42
0.0668846273534789
 10
54.83039713596116
 20
-61.62065378502613
 10
55.573005377750206
 20
-61.3107293092626
 42
0.06653812853366815
 10
55.64166341690826
 20
-61.27066262224454
 10
56.25560979452355
 20
-60.79306274057281
 42
0.06470894273164467
 10
56.3100157745083
 20
-60.7381132578848
 10
56.77508023069494
 20
-60.12786013680227
 42
0.06388252403303112
 10
56.8132539590122
 20
-60.06174129984246
 10
57.10921643651531
 20
-59.35385710584653
 42
0.06470894273167398
 10
57.129601094455595
 20
-59.279265403717915
 10
57.23624153602026
 20
-58.50877230330601
 42
0.06653812853371276
 10
57.236611285244365
 20
-58.429279353712026
 10
57.13370963361569
 20
-57.631199513381524
 42
0.044509128952473616
 10
57.12222312184788
 20
-57.5791464562237
 10
56.30896534245059
 20
-55.00624321181778
 42
0.022167188629693073
 10
56.29983665647231
 20
-54.98127191776604
 10
55.26298859129716
 20
-52.49291560660753
 42
0.022167188629102996
 10
55.251684843434646
 20
-52.46885061713045
 10
53.99736637744423
 20
-50.07972849656802
 42
0.030144721741403625
 10
53.97866965181924
 20
-50.048799680459695
 10
53.80574250281012
 20
-49.79818922236429
 42
0.03806098922758339
 10
53.777062076335376
 20
-49.76272878772382
 10
53.56874297277003
 20
-49.54186157751916
 42
0.03806098922449924
 10
53.53501873465032
 20
-49.511158400964064
 10
53.37418747405879
 20
-49.385702255462846
 10
53.27582631370898
 20
-49.01861340748751
 10
58.12745763931233
 20
-49.01861340748751
 42
0.41421356237308943
 10
58.42745763931233
 20
-48.71861340748751
 10
58.42745763931233
 20
-41.32770432055989
 10
60.08549779367316
 20
-41.32770432055989
 42
0.41421356237308943
 10
60.38549779367316
 20
-41.02770432055989
 10
60.38549779367316
 20
-37.018613410487035
 10
61.83194442898624
 20
-37.018613410487035
 42
0.41421356237308943
 10
62.13194442898624
 20
-36.71861341048704
 10
62.13194442898624
 20
-29.21861341236214
 42
0.4142135623730929
 10
61.83194442898624
 20
-28.918613412362138
 10
31.83194443648632
 20
-28.918613412362138
 42
0.41421356237309637
 10
31.53194443648632
 20
-29.21861341236214
 10
31.53194443648632
 20
-36.71861341048704
  0
LWPOLYLINE
  5
3B
330
17
100
AcDbEntity
  8
LASERCUT
100
AcDbPolyline
 90
79
 70
0
 10
32.13194443648632
 20
-36.41861341048704
 10
33.57839107184977
 20
-36.41861341048704
 42
-0.41421356237308943
 10
33.87839107184977
 20
-36.71861341048704
 10
33.87839107184977
 20
-40.727704320559894
 10
35.53643122621028
 20
-40.727704320559894
 42
-0.41421356237308943
 10
35.83643122621028
 20
-41.02770432055989
 10
35.83643122621028
 20
-48.41861340748751
 10
40.77903016364956
 20
-48.41861340748751
 42
-0.4931454260261328
 10
41.06880791153757
 20
-48.79625912101345
 10
40.84324380144387
 20
-49.638075840303166
 42
-0.16305764981566687
 10
40.737982691075686
 20
-49.79697528204019
 10
40.51593581354258
 20
-49.97018256319815
 10
40.339000370908316
 20
-50.157775716836696
 10
40.189343369296154
 20
-50.37466248068561
 10
38.94962566694919
 20
-52.73597427378358
 10
37.92301391879467
 20
-55.19976420446942
 10
37.121831357868004
 20
-57.73446508600386
 10
37.02747948606938
 20
-58.46623494161449
 10
37.123276936285976
 20
-59.158385811828595
 10
37.389354320909646
 20
-59.79479072553253
 10
37.80745845095867
 20
-60.34342295684117
 10
38.35897996271247
 20
-60.77246141745765
 10
39.02738008803096
 20
-61.051415442988834
 10
39.745708589215184
 20
-61.144034233050114
 10
40.43785945943587
 20
-61.04823678283254
 10
41.07426437313989
 20
-60.7821593982088
 10
41.62289660444856
 20
-60.36405526815976
 10
42.05193506506507
 20
-59.81253375640594
 10
42.33610887504333
 20
-59.13162653579846
 10
42.90961486499784
 20
-56.53591990094291
 10
43.25243797661508
 20
-53.88890935730713
 10
43.35946684936698
 20
-51.22409450708511
 10
43.338303466027654
 20
-50.96143655903698
 10
43.27886945469195
 20
-50.71050840107595
 10
43.17317485851735
 20
-50.44948305671012
 42
-0.16305764980011728
 10
43.16146578378395
 20
-50.25924154835141
 10
43.59508095623801
 20
-48.6409676939509
 42
-0.3394542588577423
 10
43.88485870412316
 20
-48.41861340748751
 10
49.77903016139944
 20
-48.41861340748751
 42
-0.3394542588615803
 10
50.06880790928566
 20
-48.64096769395489
 10
50.50242308172784
 20
-50.25924154840031
 42
-0.16305764984025634
 10
50.490714006974216
 20
-50.44948305680235
 10
50.38501941077512
 20
-50.71050840110097
 10
50.32558539944697
 20
-50.9614365590296
 10
50.30442201612146
 20
-51.224094507073914
 10
50.41145088890707
 20
-53.88890935730521
 10
50.75427400052461
 20
-56.53591990094414
 10
51.32777999046021
 20
-59.131626535809865
 10
51.611953800410745
 20
-59.812533756409636
 10
52.04099226102422
 20
-60.36405526815979
 10
52.589624492332746
 20
-60.78215939820882
 10
53.22602940603662
 20
-61.04823678283254
 10
53.91818027625722
 20
-61.144034233050114
 10
54.63650877744129
 20
-61.05141544298884
 10
55.3049089027601
 20
-60.772461417457635
 10
55.85643041451415
 20
-60.343422956841124
 10
56.274534544563345
 20
-59.79479072553248
 10
56.54061192918715
 20
-59.158385811828545
 10
56.636409379404704
 20
-58.46623494160797
 10
56.542057507632386
 20
-57.734465085953346
 10
55.74087494672802
 20
-55.19976420446904
 10
54.71426319857458
 20
-52.73597427378566
 10
53.474545496200605
 20
-50.37466248072694
 10
53.324888494562984
 20
-50.157775716835346
 10
53.14795305192341
 20
-49.97018256319126
 10
52.9259061744102
 20
-49.796975282026324
 42
-0.16305764980544543
 10
52.82064506405512
 20
-49.63807584029421
 10
52.59508095398292
 20
-48.796259121006734
 42
-0.49314542601892936
 10
52.88485870187273
 20
-48.41861340748751
 10
57.827457639312335
 20
-48.41861340748751
 10
57.827457639312335
 20
-41.02770432055989
 42
-0.41421356237308943
 10
58.12745763931233
 20
-40.727704320559894
 10
59.785497793673166
 20
-40.727704320559894
 10
59.785497793673166
 20
-36.71861341048704
 42
-0.41421356237308943
 10
60.08549779367316
 20
-36.41861341048704
 10
61.53194442898624
 20
-36.41861341048704
 10
61.53194442898624
 20
-29.51861341236214
 10
32.13194443648632
 20
-29.51861341236214
 10
32.13194443648632
 20
-36.41861341048704
  0
LWPOLYLINE
  5
3C
330
17
100
AcDbEntity
  8
LASERCUT
100
AcDbPolyline
 90
5
 70
0
 10
43.58194443354888
 20
-38.21861341011202
 10
50.08194443192368
 20
-38.21861341011202
 10
50.08194443192368
 20
-36.71861341048704
 10
43.58194443354888
 20
-36.71861341048704
 10
43.58194443354888
 20
-38.21861341011202
  0
LWPOLYLINE
  5
3D
330
17
100
AcDbEntity
  8
LASERCUT
100
AcDbPolyline
 90
9
 70
0
 10
43.28194443354888
 20
-38.21861341011202
 42
0.41421356237308943
 10
43.58194443354888
 20
-38.51861341011202
 10
50.08194443192368
 20
-38.51861341011202
 42
0.41421356237308943
 10
50.38194443192368
 20
-38.21861341011202
 10
50.38194443192368
 20
-36.71861341048704
 42
0.41421356237308943
 10
50.08194443192368
 20
-36.41861341048704
 10
43.58194443354888
 20
-36.41861341048704
 42
0.41421356237308943
 10
43.28194443354888
 20
-36.71861341048704
 10
43.28194443354888
 20
-38.21861341011202
  0
LWPOLYLINE
  5
3E
330
17
100
AcDbEntity
  8
LASERCUT
100
AcDbPolyline
 90
5
 70
0
 10
43.881944433548874
 20
-37.91861341011202
 10
49.781944431923684
 20
-37.91861341011202
 10
49.781944431923684
 20
-37.018613410487035
 10
43.881944433548874
 20
-37.018613410487035
 10
43.881944433548874
 20
-37.91861341011202
  0
LWPOLYLINE
  5
3F
330
17
100
AcDbEntity
  8
LASERCUT
100
AcDbPolyline
 90
2
 70
0
 10
39.72549368336306
 20
-58.44602003575566
 10
39.72549368336306
 20
-58.44602003575566
  0
ENDSEC
  0
SECTION
  2
OBJECTS
  0
DICTIONARY
  5
A
330
0
100
AcDbDictionary
281
1
  3
ACAD_COLOR
350
B
  3
ACAD_GROUP
350
C
  3
ACAD_LAYOUT
350
D
  3
ACAD_MATERIAL
350
E
  3
ACAD_MLEADERSTYLE
350
F
  3
ACAD_MLINESTYLE
350
10
  3
ACAD_PLOTSETTINGS
350
11
  3
ACAD_PLOTSTYLENAME
350
12
  3
ACAD_SCALELIST
350
14
  3
ACAD_TABLESTYLE
350
15
  3
ACAD_VISUALSTYLE
350
16
  3
EZDXF_META
350
2D
  0
DICTIONARY
  5
B
330
A
100
AcDbDictionary
281
1
  0
DICTIONARY
  5
C
330
A
100
AcDbDictionary
281
1
  0
DICTIONARY
  5
D
330
A
100
AcDbDictionary
281
1
  3
Model
350
1A
  3
Layout1
350
1E
  0
DICTIONARY
  5
E
330
A
100
AcDbDictionary
281
1
  3
ByBlock
350
1F
  3
ByLayer
350
20
  3
Global
350
21
  0
DICTIONARY
  5
F
330
A
100
AcDbDictionary
281
1
  3
Standard
350
2C
  0
DICTIONARY
  5
10
330
A
100
AcDbDictionary
281
1
  3
Standard
350
22
  0
DICTIONARY
  5
11
330
A
100
AcDbDictionary
281
1
  0
ACDBDICTIONARYWDFLT
  5
12
330
A
100
AcDbDictionary
281
1
  3
Normal
350
13
100
AcDbDictionaryWithDefault
340
13
  0
ACDBPLACEHOLDER
  5
13
330
12
  0
DICTIONARY
  5
14
330
A
100
AcDbDictionary
281
1
  0
DICTIONARY
  5
15
330
A
100
AcDbDictionary
281
1
  0
DICTIONARY
  5
16
330
A
100
AcDbDictionary
281
1
  0
LAYOUT
  5
1A
330
D
100
AcDbPlotSettings
  1

  2
Adobe PDF
  4
A3
  6

 40
7.5
 41
20.0
 42
7.5
 43
20.0
 44
420.0
 45
297.0
 46
0.0
 47
0.0
 48
0.0
 49
0.0
140
0.0
141
0.0
142
1.0
143
1.0
 70
1024
 72
1
 73
1
 74
5
  7

 75
16
 76
0
 77
2
 78
300
147
1.0
148
0.0
149
0.0
100
AcDbLayout
  1
Model
 70
1
 71
0
 10
0.0
 20
0.0
 11
420.0
 21
297.0
 12
0.0
 22
0.0
 32
0.0
 14
1e+20
 24
1e+20
 34
1e+20
 15
-1e+20
 25
-1e+20
 35
-1e+20
146
0.0
 13
0.0
 23
0.0
 33
0.0
 16
1.0
 26
0.0
 36
0.0
 17
0.0
 27
1.0
 37
0.0
 76
1
330
17
  0
LAYOUT
  5
1E
330
D
100
AcDbPlotSettings
  1

  2
Adobe PDF
  4
A3
  6

 40
7.5
 41
20.0
 42
7.5
 43
20.0
 44
420.0
 45
297.0
 46
0.0
 47
0.0
 48
0.0
 49
0.0
140
0.0
141
0.0
142
1.0
143
1.0
 70
0
 72
1
 73
1
 74
5
  7

 75
16
 76
0
 77
2
 78
300
147
1.0
148
0.0
149
0.0
100
AcDbLayout
  1
Layout1
 70
1
 71
1
 10
0.0
 20
0.0
 11
420.0
 21
297.0
 12
0.0
 22
0.0
 32
0.0
 14
1e+20
 24
1e+20
 34
1e+20
 15
-1e+20
 25
-1e+20
 35
-1e+20
146
0.0
 13
0.0
 23
0.0
 33
0.0
 16
1.0
 26
0.0
 36
0.0
 17
0.0
 27
1.0
 37
0.0
 76
1
330
1B
  0
MATERIAL
  5
1F
102
{ACAD_REACTORS
330
E
102
}
330
E
100
AcDbMaterial
  1
ByBlock
  2

 70
0
 40
1.0
 71
1
 41
1.0
 91
-1023410177
 42
1.0
 72
1
  3

 73
1
 74
1
 75
1
 44
0.5
 73
0
 45
1.0
 46
1.0
 77
1
  4

 78
1
 79
1
170
1
 48
1.0
171
1
  6

172
1
173
1
174
1
140
1.0
141
1.0
175
1
  7

176
1
177
1
178
1
143
1.0
179
1
  8

270
1
271
1
272
1
145
1.0
146
1.0
273
1
  9

274
1
275
1
276
1
 42
1.0
 72
1
  3

 73
1
 74
1
 75
1
 94
63
  0
MATERIAL
  5
20
102
{ACAD_REACTORS
330
E
102
}
330
E
100
AcDbMaterial
  1
ByLayer
  2

 70
0
 40
1.0
 71
1
 41
1.0
 91
-1023410177
 42
1.0
 72
1
  3

 73
1
 74
1
 75
1
 44
0.5
 73
0
 45
1.0
 46
1.0
 77
1
  4

 78
1
 79
1
170
1
 48
1.0
171
1
  6

172
1
173
1
174
1
140
1.0
141
1.0
175
1
  7

176
1
177
1
178
1
143
1.0
179
1
  8

270
1
271
1
272
1
145
1.0
146
1.0
273
1
  9

274
1
275
1
276
1
 42
1.0
 72
1
  3

 73
1
 74
1
 75
1
 94
63
  0
MATERIAL
  5
21
102
{ACAD_REACTORS
330
E
102
}
330
E
100
AcDbMaterial
  1
Global
  2

 70
0
 40
1.0
 71
1
 41
1.0
 91
-1023410177
 42
1.0
 72
1
  3

 73
1
 74
1
 75
1
 44
0.5
 73
0
 45
1.0
 46
1.0
 77
1
  4

 78
1
 79
1
170
1
 48
1.0
171
1
  6

172
1
173
1
174
1
140
1.0
141
1.0
175
1
  7

176
1
177
1
178
1
143
1.0
179
1
  8

270
1
271
1
272
1
145
1.0
146
1.0
273
1
  9

274
1
275
1
276
1
 42
1.0
 72
1
  3

 73
1
 74
1
 75
1
 94
63
  0
MLINESTYLE
  5
22
102
{ACAD_REACTORS
330
10
102
}
330
10
100
AcDbMlineStyle
  2
Standard
 70
0
  3

 62
256
 51
90.0
 52
90.0
 71
2
 49
0.5
 62
256
  6
BYLAYER
 49
-0.5
 62
256
  6
BYLAYER
  0
MLEADERSTYLE
  5
2C
102
{ACAD_REACTORS
330
F
102
}
330
F
100
AcDbMLeaderStyle
179
2
170
2
171
1
172
0
 90
2
 40
0.0
 41
0.0
173
1
 91
-1056964608
 92
-2
290
1
 42
2.0
291
1
 43
8.0
  3
Standard
 44
4.0
300

342
29
174
1
175
1
176
0
178
1
 93
-1056964608
 45
4.0
292
0
297
0
 46
4.0
 94
-1056964608
 47
1.0
 49
1.0
140
1.0
294
1
141
0.0
177
0
142
1.0
295
0
296
0
143
3.75
271
0
272
9
273
9
  0
DICTIONARY
  5
2D
330
A
100
AcDbDictionary
280
1
281
1
  3
CREATED_BY_EZDXF
350
2E
  3
WRITTEN_BY_EZDXF
350
42
  0
DICTIONARYVAR
  5
2E
330
2D
100
DictionaryVariables
280
0
  1
0.18.1 @ 2023-03-08T05:13:11.035428+00:00
  0
DICTIONARYVAR
  5
42
330
2D
100
DictionaryVariables
280
0
  1
0.18.1 @ 2023-03-08T05:13:11.036781+00:00
  0
ENDSEC
  0
EOF
