  0
SECTION
  2
HEADER
  9
$ACADVER
  1
AC1024
  9
$ACADMAINTVER
 70
6
  9
$DWGCODEPAGE
  3
ANSI_1252
  9
$LASTSAVEDBY
  1
ezdxf
  9
$INSBASE
 10
0.0
 20
0.0
 30
0.0
  9
$EXTMIN
 10
1e+20
 20
1e+20
 30
1e+20
  9
$EXTMAX
 10
-1e+20
 20
-1e+20
 30
-1e+20
  9
$LIMMIN
 10
0.0
 20
0.0
  9
$LIMMAX
 10
420.0
 20
297.0
  9
$ORTHOMODE
 70
0
  9
$REGENMODE
 70
1
  9
$FILLMODE
 70
1
  9
$QTEXTMODE
 70
0
  9
$MIRRTEXT
 70
1
  9
$LTSCALE
 40
1.0
  9
$ATTMODE
 70
1
  9
$TEXTSIZE
 40
2.5
  9
$TRACEWID
 40
1.0
  9
$TEXTSTYLE
  7
Standard
  9
$CLAYER
  8
0
  9
$CELTYPE
  6
ByLayer
  9
$CECOLOR
 62
256
  9
$CELTSCALE
 40
1.0
  9
$DISPSILH
 70
0
  9
$DIMSCALE
 40
1.0
  9
$DIMASZ
 40
2.5
  9
$DIMEXO
 40
0.625
  9
$DIMDLI
 40
3.75
  9
$DIMRND
 40
0.0
  9
$DIMDLE
 40
0.0
  9
$DIMEXE
 40
1.25
  9
$DIMTP
 40
0.0
  9
$DIMTM
 40
0.0
  9
$DIMTXT
 40
2.5
  9
$DIMCEN
 40
2.5
  9
$DIMTSZ
 40
0.0
  9
$DIMTOL
 70
0
  9
$DIMLIM
 70
0
  9
$DIMTIH
 70
0
  9
$DIMTOH
 70
0
  9
$DIMSE1
 70
0
  9
$DIMSE2
 70
0
  9
$DIMTAD
 70
1
  9
$DIMZIN
 70
8
  9
$DIMBLK
  1

  9
$DIMASO
 70
1
  9
$DIMSHO
 70
1
  9
$DIMPOST
  1

  9
$DIMAPOST
  1

  9
$DIMALT
 70
0
  9
$DIMALTD
 70
3
  9
$DIMALTF
 40
0.03937007874
  9
$DIMLFAC
 40
1.0
  9
$DIMTOFL
 70
1
  9
$DIMTVP
 40
0.0
  9
$DIMTIX
 70
0
  9
$DIMSOXD
 70
0
  9
$DIMSAH
 70
0
  9
$DIMBLK1
  1

  9
$DIMBLK2
  1

  9
$DIMSTYLE
  2
ISO-25
  9
$DIMCLRD
 70
0
  9
$DIMCLRE
 70
0
  9
$DIMCLRT
 70
0
  9
$DIMTFAC
 40
1.0
  9
$DIMGAP
 40
0.625
  9
$DIMJUST
 70
0
  9
$DIMSD1
 70
0
  9
$DIMSD2
 70
0
  9
$DIMTOLJ
 70
0
  9
$DIMTZIN
 70
8
  9
$DIMALTZ
 70
0
  9
$DIMALTTZ
 70
0
  9
$DIMUPT
 70
0
  9
$DIMDEC
 70
2
  9
$DIMTDEC
 70
2
  9
$DIMALTU
 70
2
  9
$DIMALTTD
 70
3
  9
$DIMTXSTY
  7
Standard
  9
$DIMAUNIT
 70
0
  9
$DIMADEC
 70
0
  9
$DIMALTRND
 40
0.0
  9
$DIMAZIN
 70
0
  9
$DIMDSEP
 70
44
  9
$DIMATFIT
 70
3
  9
$DIMFRAC
 70
0
  9
$DIMLDRBLK
  1

  9
$DIMLUNIT
 70
2
  9
$DIMLWD
 70
-2
  9
$DIMLWE
 70
-2
  9
$DIMTMOVE
 70
0
  9
$DIMFXL
 40
1.0
  9
$DIMFXLON
 70
0
  9
$DIMJOGANG
 40
0.785398163397
  9
$DIMTFILL
 70
0
  9
$DIMTFILLCLR
 70
0
  9
$DIMARCSYM
 70
0
  9
$DIMLTYPE
  6

  9
$DIMLTEX1
  6

  9
$DIMLTEX2
  6

  9
$DIMTXTDIRECTION
 70
0
  9
$LUNITS
 70
2
  9
$LUPREC
 70
4
  9
$SKETCHINC
 40
1.0
  9
$FILLETRAD
 40
10.0
  9
$AUNITS
 70
0
  9
$AUPREC
 70
2
  9
$MENU
  1
.
  9
$ELEVATION
 40
0.0
  9
$PELEVATION
 40
0.0
  9
$THICKNESS
 40
0.0
  9
$LIMCHECK
 70
0
  9
$CHAMFERA
 40
0.0
  9
$CHAMFERB
 40
0.0
  9
$CHAMFERC
 40
0.0
  9
$CHAMFERD
 40
0.0
  9
$SKPOLY
 70
0
  9
$TDCREATE
 40
2460012.342476852
  9
$TDUCREATE
 40
2458532.153996898
  9
$TDUPDATE
 40
2460012.342476852
  9
$TDUUPDATE
 40
2458532.1544311
  9
$TDINDWG
 40
0.0
  9
$TDUSRTIMER
 40
0.0
  9
$USRTIMER
 70
1
  9
$ANGBASE
 50
0.0
  9
$ANGDIR
 70
0
  9
$PDMODE
 70
0
  9
$PDSIZE
 40
0.0
  9
$PLINEWID
 40
0.0
  9
$SPLFRAME
 70
0
  9
$SPLINETYPE
 70
6
  9
$SPLINESEGS
 70
8
  9
$HANDSEED
  5
42
  9
$SURFTAB1
 70
6
  9
$SURFTAB2
 70
6
  9
$SURFTYPE
 70
6
  9
$SURFU
 70
6
  9
$SURFV
 70
6
  9
$UCSBASE
  2

  9
$UCSNAME
  2

  9
$UCSORG
 10
0.0
 20
0.0
 30
0.0
  9
$UCSXDIR
 10
1.0
 20
0.0
 30
0.0
  9
$UCSYDIR
 10
0.0
 20
1.0
 30
0.0
  9
$UCSORTHOREF
  2

  9
$UCSORTHOVIEW
 70
0
  9
$UCSORGTOP
 10
0.0
 20
0.0
 30
0.0
  9
$UCSORGBOTTOM
 10
0.0
 20
0.0
 30
0.0
  9
$UCSORGLEFT
 10
0.0
 20
0.0
 30
0.0
  9
$UCSORGRIGHT
 10
0.0
 20
0.0
 30
0.0
  9
$UCSORGFRONT
 10
0.0
 20
0.0
 30
0.0
  9
$UCSORGBACK
 10
0.0
 20
0.0
 30
0.0
  9
$PUCSBASE
  2

  9
$PUCSNAME
  2

  9
$PUCSORG
 10
0.0
 20
0.0
 30
0.0
  9
$PUCSXDIR
 10
1.0
 20
0.0
 30
0.0
  9
$PUCSYDIR
 10
0.0
 20
1.0
 30
0.0
  9
$PUCSORTHOREF
  2

  9
$PUCSORTHOVIEW
 70
0
  9
$PUCSORGTOP
 10
0.0
 20
0.0
 30
0.0
  9
$PUCSORGBOTTOM
 10
0.0
 20
0.0
 30
0.0
  9
$PUCSORGLEFT
 10
0.0
 20
0.0
 30
0.0
  9
$PUCSORGRIGHT
 10
0.0
 20
0.0
 30
0.0
  9
$PUCSORGFRONT
 10
0.0
 20
0.0
 30
0.0
  9
$PUCSORGBACK
 10
0.0
 20
0.0
 30
0.0
  9
$USERI1
 70
0
  9
$USERI2
 70
0
  9
$USERI3
 70
0
  9
$USERI4
 70
0
  9
$USERI5
 70
0
  9
$USERR1
 40
0.0
  9
$USERR2
 40
0.0
  9
$USERR3
 40
0.0
  9
$USERR4
 40
0.0
  9
$USERR5
 40
0.0
  9
$WORLDVIEW
 70
1
  9
$SHADEDGE
 70
3
  9
$SHADEDIF
 70
70
  9
$TILEMODE
 70
1
  9
$MAXACTVP
 70
64
  9
$PINSBASE
 10
0.0
 20
0.0
 30
0.0
  9
$PLIMCHECK
 70
0
  9
$PEXTMIN
 10
1e+20
 20
1e+20
 30
1e+20
  9
$PEXTMAX
 10
-1e+20
 20
-1e+20
 30
-1e+20
  9
$PLIMMIN
 10
0.0
 20
0.0
  9
$PLIMMAX
 10
420.0
 20
297.0
  9
$UNITMODE
 70
0
  9
$VISRETAIN
 70
1
  9
$PLINEGEN
 70
0
  9
$PSLTSCALE
 70
1
  9
$TREEDEPTH
 70
3020
  9
$CMLSTYLE
  2
Standard
  9
$CMLJUST
 70
0
  9
$CMLSCALE
 40
20.0
  9
$PROXYGRAPHICS
 70
1
  9
$MEASUREMENT
 70
1
  9
$CELWEIGHT
370
-1
  9
$ENDCAPS
280
0
  9
$JOINSTYLE
280
0
  9
$LWDISPLAY
290
0
  9
$INSUNITS
 70
6
  9
$HYPERLINKBASE
  1

  9
$STYLESHEET
  1

  9
$XEDIT
290
1
  9
$CEPSNTYPE
380
0
  9
$PSTYLEMODE
290
1
  9
$FINGERPRINTGUID
  2
{557F789F-65C6-42C7-A4AE-7EC619F0F1E7}
  9
$VERSIONGUID
  2
{4A16830D-129B-4A68-8BE4-CFCA0C0C0EE2}
  9
$EXTNAMES
290
1
  9
$PSVPSCALE
 40
0.0
  9
$OLESTARTUP
290
0
  9
$SORTENTS
280
127
  9
$INDEXCTL
280
0
  9
$HIDETEXT
280
1
  9
$XCLIPFRAME
280
0
  9
$HALOGAP
280
0
  9
$OBSCOLOR
 70
257
  9
$OBSLTYPE
280
0
  9
$INTERSECTIONDISPLAY
280
0
  9
$INTERSECTIONCOLOR
 70
257
  9
$DIMASSOC
280
2
  9
$PROJECTNAME
  1

  9
$CAMERADISPLAY
290
0
  9
$LENSLENGTH
 40
50.0
  9
$CAMERAHEIGHT
 40
0.0
  9
$STEPSPERSEC
 40
24.0
  9
$STEPSIZE
 40
100.0
  9
$3DDWFPREC
 40
2.0
  9
$PSOLWIDTH
 40
0.005
  9
$PSOLHEIGHT
 40
0.08
  9
$LOFTANG1
 40
1.570796326795
  9
$LOFTANG2
 40
1.570796326795
  9
$LOFTMAG1
 40
0.0
  9
$LOFTMAG2
 40
0.0
  9
$LOFTPARAM
 70
7
  9
$LOFTNORMALS
280
1
  9
$LATITUDE
 40
37.795
  9
$LONGITUDE
 40
-122.394
  9
$NORTHDIRECTION
 40
0.0
  9
$TIMEZONE
 70
-8000
  9
$LIGHTGLYPHDISPLAY
280
1
  9
$TILEMODELIGHTSYNCH
280
1
  9
$CMATERIAL
347
20
  9
$SOLIDHIST
280
0
  9
$SHOWHIST
280
1
  9
$DWFFRAME
280
2
  9
$DGNFRAME
280
2
  9
$REALWORLDSCALE
290
1
  9
$INTERFERECOLOR
 62
256
  9
$CSHADOW
280
0
  9
$SHADOWPLANELOCATION
 40
0.0
  0
ENDSEC
  0
SECTION
  2
CLASSES
  0
CLASS
  1
ACDBDICTIONARYWDFLT
  2
AcDbDictionaryWithDefault
  3
ObjectDBX Classes
 90
0
 91
0
280
0
281
0
  0
CLASS
  1
SUN
  2
AcDbSun
  3
SCENEOE
 90
1153
 91
0
280
0
281
0
  0
CLASS
  1
VISUALSTYLE
  2
AcDbVisualStyle
  3
ObjectDBX Classes
 90
4095
 91
0
280
0
281
0
  0
CLASS
  1
MATERIAL
  2
AcDbMaterial
  3
ObjectDBX Classes
 90
1153
 91
0
280
0
281
0
  0
CLASS
  1
SCALE
  2
AcDbScale
  3
ObjectDBX Classes
 90
1153
 91
0
280
0
281
0
  0
CLASS
  1
TABLESTYLE
  2
AcDbTableStyle
  3
ObjectDBX Classes
 90
4095
 91
0
280
0
281
0
  0
CLASS
  1
MLEADERSTYLE
  2
AcDbMLeaderStyle
  3
ACDB_MLEADERSTYLE_CLASS
 90
4095
 91
0
280
0
281
0
  0
CLASS
  1
DICTIONARYVAR
  2
AcDbDictionaryVar
  3
ObjectDBX Classes
 90
0
 91
0
280
0
281
0
  0
CLASS
  1
CELLSTYLEMAP
  2
AcDbCellStyleMap
  3
ObjectDBX Classes
 90
1152
 91
0
280
0
281
0
  0
CLASS
  1
MENTALRAYRENDERSETTINGS
  2
AcDbMentalRayRenderSettings
  3
SCENEOE
 90
1024
 91
0
280
0
281
0
  0
CLASS
  1
ACDBDETAILVIEWSTYLE
  2
AcDbDetailViewStyle
  3
ObjectDBX Classes
 90
1025
 91
0
280
0
281
0
  0
CLASS
  1
ACDBSECTIONVIEWSTYLE
  2
AcDbSectionViewStyle
  3
ObjectDBX Classes
 90
1025
 91
0
280
0
281
0
  0
CLASS
  1
RASTERVARIABLES
  2
AcDbRasterVariables
  3
ISM
 90
0
 91
0
280
0
281
0
  0
CLASS
  1
LAYOUT
  2
AcDbLayout
  3
ObjectDBX Classes
 90
0
 91
0
280
0
281
0
  0
CLASS
  1
ACDBPLACEHOLDER
  2
AcDbPlaceHolder
  3
ObjectDBX Classes
 90
0
 91
0
280
0
281
0
  0
ENDSEC
  0
SECTION
  2
TABLES
  0
TABLE
  2
VPORT
  5
8
330
0
100
AcDbSymbolTable
 70
1
  0
VPORT
  5
23
330
8
100
AcDbSymbolTableRecord
100
AcDbViewportTableRecord
  2
*Active
 70
0
 10
0.0
 20
0.0
 11
1.0
 21
1.0
 12
0.0
 22
0.0
 13
0.0
 23
0.0
 14
0.5
 24
0.5
 15
0.5
 25
0.5
 16
0.0
 26
0.0
 36
1.0
 17
0.0
 27
0.0
 37
0.0
 40
1000.0
 41
1.34
 42
50.0
 43
0.0
 44
0.0
 50
0.0
 51
0.0
 71
0
 72
1000
 73
1
 74
3
 75
0
 76
0
 77
0
 78
0
281
0
 65
0
146
0.0
  0
ENDTAB
  0
TABLE
  2
LTYPE
  5
2
330
0
100
AcDbSymbolTable
 70
3
  0
LTYPE
  5
24
330
2
100
AcDbSymbolTableRecord
100
AcDbLinetypeTableRecord
  2
ByBlock
 70
0
  3

 72
65
 73
0
 40
0.0
  0
LTYPE
  5
25
330
2
100
AcDbSymbolTableRecord
100
AcDbLinetypeTableRecord
  2
ByLayer
 70
0
  3

 72
65
 73
0
 40
0.0
  0
LTYPE
  5
26
330
2
100
AcDbSymbolTableRecord
100
AcDbLinetypeTableRecord
  2
Continuous
 70
0
  3

 72
65
 73
0
 40
0.0
  0
ENDTAB
  0
TABLE
  2
LAYER
  5
1
330
0
100
AcDbSymbolTable
 70
3
  0
LAYER
  5
27
330
1
100
AcDbSymbolTableRecord
100
AcDbLayerTableRecord
  2
0
 70
0
 62
7
  6
Continuous
370
-3
390
13
347
21
  0
LAYER
  5
28
330
1
100
AcDbSymbolTableRecord
100
AcDbLayerTableRecord
  2
Defpoints
 70
0
 62
7
  6
Continuous
290
0
370
-3
390
13
347
21
  0
LAYER
  5
2F
330
1
100
AcDbSymbolTableRecord
100
AcDbLayerTableRecord
  2
LASERCUT
 70
0
 62
7
  6
Continuous
370
-3
390
13
347
21
  0
ENDTAB
  0
TABLE
  2
STYLE
  5
5
330
0
100
AcDbSymbolTable
 70
1
  0
STYLE
  5
29
330
5
100
AcDbSymbolTableRecord
100
AcDbTextStyleTableRecord
  2
Standard
 70
0
 40
0.0
 41
1.0
 50
0.0
 71
0
 42
2.5
  3
txt
  4

  0
ENDTAB
  0
TABLE
  2
VIEW
  5
7
330
0
100
AcDbSymbolTable
 70
0
  0
ENDTAB
  0
TABLE
  2
UCS
  5
6
330
0
100
AcDbSymbolTable
 70
0
  0
ENDTAB
  0
TABLE
  2
APPID
  5
3
330
0
100
AcDbSymbolTable
 70
3
  0
APPID
  5
2A
330
3
100
AcDbSymbolTableRecord
100
AcDbRegAppTableRecord
  2
ACAD
 70
0
  0
APPID
  5
3F
330
3
100
AcDbSymbolTableRecord
100
AcDbRegAppTableRecord
  2
HATCHBACKGROUNDCOLOR
 70
0
  0
APPID
  5
40
330
3
100
AcDbSymbolTableRecord
100
AcDbRegAppTableRecord
  2
EZDXF
 70
0
  0
ENDTAB
  0
TABLE
  2
DIMSTYLE
  5
4
330
0
100
AcDbSymbolTable
 70
1
100
AcDbDimStyleTable
  0
DIMSTYLE
105
2B
330
4
100
AcDbSymbolTableRecord
100
AcDbDimStyleTableRecord
  2
Standard
 70
0
 40
1.0
 41
2.5
 42
0.625
 43
3.75
 44
1.25
 45
0.0
 46
0.0
 47
0.0
 48
0.0
 49
2.5
140
2.5
141
2.5
142
0.0
143
0.03937007874
144
1.0
145
0.0
146
1.0
147
0.625
148
0.0
 69
0
 70
0
 71
0
 72
0
 73
0
 74
0
 75
0
 76
0
 77
1
 78
8
 79
3
170
0
171
3
172
1
173
0
174
0
175
0
176
0
177
0
178
0
179
2
271
2
272
2
273
2
274
3
275
0
276
0
277
2
278
44
279
0
280
0
281
0
282
0
283
0
284
8
285
0
286
0
288
0
289
3
290
0
371
-2
372
-2
  0
ENDTAB
  0
TABLE
  2
BLOCK_RECORD
  5
9
330
0
100
AcDbSymbolTable
 70
2
  0
BLOCK_RECORD
  5
17
330
9
100
AcDbSymbolTableRecord
100
AcDbBlockTableRecord
  2
*Model_Space
340
1A
 70
0
280
1
281
0
  0
BLOCK_RECORD
  5
1B
330
9
100
AcDbSymbolTableRecord
100
AcDbBlockTableRecord
  2
*Paper_Space
340
1E
 70
0
280
1
281
0
  0
ENDTAB
  0
ENDSEC
  0
SECTION
  2
BLOCKS
  0
BLOCK
  5
18
330
17
100
AcDbEntity
  8
0
100
AcDbBlockBegin
  2
*Model_Space
 70
0
 10
0.0
 20
0.0
 30
0.0
  3
*Model_Space
  1

  0
ENDBLK
  5
19
330
17
100
AcDbEntity
  8
0
100
AcDbBlockEnd
  0
BLOCK
  5
1C
330
1B
100
AcDbEntity
  8
0
100
AcDbBlockBegin
  2
*Paper_Space
 70
0
 10
0.0
 20
0.0
 30
0.0
  3
*Paper_Space
  1

  0
ENDBLK
  5
1D
330
1B
100
AcDbEntity
  8
0
100
AcDbBlockEnd
  0
ENDSEC
  0
SECTION
  2
ENTITIES
  0
CIRCLE
  5
30
330
17
100
AcDbEntity
  8
LASERCUT
100
AcDbCircle
 10
24.1683400525
 20
-31.0709575293
 30
0.0
 40
4.000000000000001
  0
CIRCLE
  5
31
330
17
100
AcDbEntity
  8
LASERCUT
100
AcDbCircle
 10
24.1683400525
 20
-31.0709575293
 30
0.0
 40
4.300000000000001
  0
CIRCLE
  5
32
330
17
100
AcDbEntity
  8
LASERCUT
100
AcDbCircle
 10
24.1683400525
 20
-31.0709575293
 30
0.0
 40
3.700000000000001
  0
CIRCLE
  5
33
330
17
100
AcDbEntity
  8
LASERCUT
100
AcDbCircle
 10
35.1683400525
 20
-31.0709575293
 30
0.0
 40
3.999999999999997
  0
CIRCLE
  5
34
330
17
100
AcDbEntity
  8
LASERCUT
100
AcDbCircle
 10
35.1683400525
 20
-31.0709575293
 30
0.0
 40
4.299999999999997
  0
CIRCLE
  5
35
330
17
100
AcDbEntity
  8
LASERCUT
100
AcDbCircle
 10
35.1683400525
 20
-31.0709575293
 30
0.0
 40
3.699999999999997
  0
LWPOLYLINE
  5
36
330
17
100
AcDbEntity
  8
LASERCUT
100
AcDbPolyline
 90
13
 70
0
 10
27.6683400525
 20
-24.0709575293
 10
31.6683400525
 20
-24.0709575293
 10
31.6683400525
 20
-22.0709575293
 10
33.6683400525
 20
-22.0709575293
 10
33.6683400525
 20
-24.0709575293
 10
43.1683400525
 20
-24.0709575293
 10
43.1683400525
 20
-19.5709575293
 10
16.1683400525
 20
-19.5709575293
 10
16.1683400525
 20
-24.0709575293
 10
25.6683400525
 20
-24.0709575293
 10
25.6683400525
 20
-22.0709575293
 10
27.6683400525
 20
-22.0709575293
 10
27.6683400525
 20
-24.0709575293
  0
LWPOLYLINE
  5
37
330
17
100
AcDbEntity
  8
LASERCUT
100
AcDbPolyline
 90
21
 70
0
 10
27.3683400525
 20
-24.0709575293
 42
0.41421356237309637
 10
27.6683400525
 20
-24.3709575293
 10
31.6683400525
 20
-24.3709575293
 42
0.41421356237309637
 10
31.9683400525
 20
-24.0709575293
 10
31.9683400525
 20
-22.3709575293
 10
33.3683400525
 20
-22.3709575293
 10
33.3683400525
 20
-24.0709575293
 42
0.4142135623730929
 10
33.6683400525
 20
-24.3709575293
 10
43.1683400525
 20
-24.3709575293
 42
0.4142135623730929
 10
43.4683400525
 20
-24.0709575293
 10
43.4683400525
 20
-19.5709575293
 42
0.4142135623730929
 10
43.1683400525
 20
-19.2709575293
 10
16.1683400525
 20
-19.2709575293
 42
0.41421356237309637
 10
15.868340052499999
 20
-19.5709575293
 10
15.868340052499999
 20
-24.0709575293
 42
0.41421356237309637
 10
16.1683400525
 20
-24.3709575293
 10
25.6683400525
 20
-24.3709575293
 42
0.41421356237309637
 10
25.9683400525
 20
-24.0709575293
 10
25.9683400525
 20
-22.3709575293
 10
27.3683400525
 20
-22.3709575293
 10
27.3683400525
 20
-24.0709575293
  0
LWPOLYLINE
  5
38
330
17
100
AcDbEntity
  8
LASERCUT
100
AcDbPolyline
 90
17
 70
0
 10
27.9683400525
 20
-23.7709575293
 10
31.3683400525
 20
-23.7709575293
 10
31.3683400525
 20
-22.0709575293
 42
-0.41421356237309637
 10
31.6683400525
 20
-21.7709575293
 10
33.6683400525
 20
-21.7709575293
 42
-0.4142135623730929
 10
33.9683400525
 20
-22.0709575293
 10
33.9683400525
 20
-23.7709575293
 10
42.8683400525
 20
-23.7709575293
 10
42.8683400525
 20
-19.8709575293
 10
16.468340052499997
 20
-19.8709575293
 10
16.4683400525
 20
-23.7709575293
 10
25.3683400525
 20
-23.7709575293
 10
25.3683400525
 20
-22.0709575293
 42
-0.41421356237309637
 10
25.6683400525
 20
-21.7709575293
 10
27.6683400525
 20
-21.7709575293
 42
-0.41421356237309637
 10
27.9683400525
 20
-22.0709575293
 10
27.9683400525
 20
-23.7709575293
  0
LWPOLYLINE
  5
39
330
17
100
AcDbEntity
  8
LASERCUT
100
AcDbPolyline
 90
29
 70
0
 10
14.6683400525
 20
-25.5709575293
 10
16.4147866883
 20
-25.5709575293
 10
16.4147866883
 20
-29.8800484404
 10
18.3728268432
 20
-29.8800484404
 10
18.3728268432
 20
-37.5709575293
 10
23.6154257819
 20
-37.5709575293
 10
23.3898616717
 20
-38.4127742488
 42
0.11468087639010933
 10
22.768536133845263
 20
-39.07152534666227
 42
0.0665997117946696
 10
19.66411182251235
 20
-46.52190702468693
 42
1.0
 10
25.459666780267206
 20
-48.07482129530756
 42
0.0665997117947989
 10
26.496347301541363
 20
-40.070389338566166
 42
0.11468087639436951
 10
26.28763915058737
 20
-39.189231384105156
 10
26.7212543231
 20
-37.5709575293
 10
32.6154257819
 20
-37.5709575293
 10
33.0490409545
 20
-39.1892313841
 42
0.11468087639549193
 10
32.840332803523935
 20
-40.07038933856467
 42
0.06659971179487252
 10
33.87701332481237
 20
-48.07482129531307
 42
1.0
 10
39.672568282567205
 20
-46.52190702469244
 42
0.06659971179480012
 10
36.56814397122841
 20
-39.07152534665327
 42
0.1146808763979429
 10
35.946818433278516
 20
-38.41277424879793
 10
35.7212543231
 20
-37.5709575293
 10
40.9638532619
 20
-37.5709575293
 10
40.9638532619
 20
-29.8800484404
 10
42.9218934168
 20
-29.8800484404
 10
42.9218934168
 20
-25.5709575293
 10
44.6683400525
 20
-25.5709575293
 10
44.6683400525
 20
-18.0709575293
 10
14.6683400525
 20
-18.0709575293
 10
14.6683400525
 20
-25.5709575293
  0
LWPOLYLINE
  5
3A
330
17
100
AcDbEntity
  8
LASERCUT
100
AcDbPolyline
 90
37
 70
0
 10
14.368340052499999
 20
-25.5709575293
 42
0.41421356237309637
 10
14.6683400525
 20
-25.8709575293
 10
16.1147866883
 20
-25.8709575293
 10
16.1147866883
 20
-29.8800484404
 42
0.41421356237309637
 10
16.4147866883
 20
-30.1800484404
 10
18.072826843199998
 20
-30.1800484404
 10
18.072826843199998
 20
-37.5709575293
 42
0.4142135623730929
 10
18.3728268432
 20
-37.8709575293
 10
23.224458170031955
 20
-37.8709575293
 10
23.12827098741815
 20
-38.22993298179565
 42
0.10183607817022851
 10
22.50936180435101
 20
-38.92043376208125
 42
0.06659971179482109
 10
19.37433407462545
 20
-46.444261311156836
 42
1.0
 10
25.749444526774294
 20
-48.15246701398718
 42
0.06659971183834787
 10
26.796344647182774
 20
-40.06912735278666
 42
0.10183607817669199
 10
26.605603962076984
 20
-39.161681544150056
 10
26.95145241949572
 20
-37.8709575293
 10
32.38522768551647
 20
-37.8709575293
 10
32.731076143005694
 20
-39.16168154414934
 42
0.10183607819849456
 10
32.5403354578817
 20
-40.06912735298083
 42
0.06659971179327734
 10
33.587235576925984
 20
-48.152467008845086
 42
1.0
 10
39.96234603173949
 20
-46.44426131595949
 42
0.06659971183537862
 10
36.82731830073202
 20
-38.920433762088294
 42
0.10183607817997789
 10
36.20840911755932
 20
-38.229932981780536
 10
36.11222193495862
 20
-37.8709575293
 10
40.9638532619
 20
-37.8709575293
 42
0.41421356237308943
 10
41.263853261899996
 20
-37.5709575293
 10
41.263853261899996
 20
-30.1800484404
 10
42.9218934168
 20
-30.1800484404
 42
0.4142135623730929
 10
43.2218934168
 20
-29.8800484404
 10
43.2218934168
 20
-25.8709575293
 10
44.6683400525
 20
-25.8709575293
 42
0.4142135623730929
 10
44.9683400525
 20
-25.5709575293
 10
44.9683400525
 20
-18.0709575293
 42
0.4142135623730929
 10
44.6683400525
 20
-17.7709575293
 10
14.6683400525
 20
-17.7709575293
 42
0.41421356237309637
 10
14.368340052499999
 20
-18.0709575293
 10
14.368340052499999
 20
-25.5709575293
  0
LWPOLYLINE
  5
3B
330
17
100
AcDbEntity
  8
LASERCUT
100
AcDbPolyline
 90
41
 70
0
 10
14.9683400525
 20
-25.2709575293
 10
16.4147866883
 20
-25.2709575293
 42
-0.41421356237309637
 10
16.714786688300002
 20
-25.5709575293
 10
16.714786688300002
 20
-29.5800484404
 10
18.3728268432
 20
-29.5800484404
 42
-0.41421356237309637
 10
18.6728268432
 20
-29.8800484404
 10
18.6728268432
 20
-37.270957529300006
 10
23.6154257819
 20
-37.270957529300006
 42
-0.49314542604334083
 10
23.905203529783712
 20
-37.648603242841986
 10
23.67963941958371
 20
-38.49041996234198
 42
-0.18267581366659139
 10
23.55583717052674
 20
-38.66267849804201
 42
0.1146808763901089
 10
23.027710463350214
 20
-39.22261693122494
 42
0.06659971179469087
 10
19.953889570399248
 20
-46.59955273821703
 42
1.0
 10
25.169889033760118
 20
-47.99717557662794
 42
0.06659971174917846
 10
26.196349955900562
 20
-40.07165132449028
 42
0.11468087641286592
 10
26.018948027589143
 20
-39.322667063074284
 42
-0.18267581369866073
 10
25.997861402699986
 20
-39.11158567057687
 10
26.431476575212614
 20
-37.49331181577172
 42
-0.33945425886575414
 10
26.7212543231
 20
-37.270957529300006
 10
32.6154257819
 20
-37.270957529300006
 42
-0.33945425885148794
 10
32.905203529783414
 20
-37.49331181575689
 10
33.33881870238341
 20
-39.111585670556885
 42
-0.18267581371833772
 10
33.31773207749489
 20
-39.32266706307584
 42
0.11468087639549147
 10
33.14033014916524
 20
-40.07165132437081
 42
0.06659971179464685
 10
34.16679107269875
 20
-47.99717558178106
 42
1.0
 10
39.38279053339492
 20
-46.59955273342539
 42
0.066599711752399
 10
36.30896964178606
 20
-39.2226169313233
 42
0.11468087641349846
 10
35.780842934476055
 20
-38.662678498056074
 42
-0.18267581369768787
 10
35.657040685393
 20
-38.49041996233319
 10
35.43147657521448
 20
-37.648603242835264
 42
-0.4931454260361352
 10
35.7212543231
 20
-37.270957529300006
 10
40.6638532619
 20
-37.270957529300006
 10
40.6638532619
 20
-29.8800484404
 42
-0.4142135623730929
 10
40.9638532619
 20
-29.5800484404
 10
42.621893416800006
 20
-29.5800484404
 10
42.621893416800006
 20
-25.5709575293
 42
-0.4142135623730929
 10
42.9218934168
 20
-25.2709575293
 10
44.3683400525
 20
-25.2709575293
 10
44.3683400525
 20
-18.3709575293
 10
14.968340052499997
 20
-18.3709575293
 10
14.9683400525
 20
-25.2709575293
  0
LWPOLYLINE
  5
3C
330
17
100
AcDbEntity
  8
LASERCUT
100
AcDbPolyline
 90
5
 70
0
 10
26.4183400525
 20
-27.0709575293
 10
32.9183400525
 20
-27.0709575293
 10
32.9183400525
 20
-25.5709575293
 10
26.4183400525
 20
-25.5709575293
 10
26.4183400525
 20
-27.0709575293
  0
LWPOLYLINE
  5
3D
330
17
100
AcDbEntity
  8
LASERCUT
100
AcDbPolyline
 90
9
 70
0
 10
26.1183400525
 20
-27.0709575293
 42
0.41421356237309637
 10
26.4183400525
 20
-27.3709575293
 10
32.9183400525
 20
-27.3709575293
 42
0.4142135623730929
 10
33.2183400525
 20
-27.0709575293
 10
33.2183400525
 20
-25.5709575293
 42
0.4142135623730929
 10
32.9183400525
 20
-25.2709575293
 10
26.4183400525
 20
-25.2709575293
 42
0.41421356237309637
 10
26.1183400525
 20
-25.5709575293
 10
26.1183400525
 20
-27.0709575293
  0
LWPOLYLINE
  5
3E
330
17
100
AcDbEntity
  8
LASERCUT
100
AcDbPolyline
 90
5
 70
0
 10
26.7183400525
 20
-26.7709575293
 10
32.6183400525
 20
-26.7709575293
 10
32.6183400525
 20
-25.8709575293
 10
26.7183400525
 20
-25.8709575293
 10
26.7183400525
 20
-26.7709575293
  0
ENDSEC
  0
SECTION
  2
OBJECTS
  0
DICTIONARY
  5
A
330
0
100
AcDbDictionary
281
1
  3
ACAD_COLOR
350
B
  3
ACAD_GROUP
350
C
  3
ACAD_LAYOUT
350
D
  3
ACAD_MATERIAL
350
E
  3
ACAD_MLEADERSTYLE
350
F
  3
ACAD_MLINESTYLE
350
10
  3
ACAD_PLOTSETTINGS
350
11
  3
ACAD_PLOTSTYLENAME
350
12
  3
ACAD_SCALELIST
350
14
  3
ACAD_TABLESTYLE
350
15
  3
ACAD_VISUALSTYLE
350
16
  3
EZDXF_META
350
2D
  0
DICTIONARY
  5
B
330
A
100
AcDbDictionary
281
1
  0
DICTIONARY
  5
C
330
A
100
AcDbDictionary
281
1
  0
DICTIONARY
  5
D
330
A
100
AcDbDictionary
281
1
  3
Model
350
1A
  3
Layout1
350
1E
  0
DICTIONARY
  5
E
330
A
100
AcDbDictionary
281
1
  3
ByBlock
350
1F
  3
ByLayer
350
20
  3
Global
350
21
  0
DICTIONARY
  5
F
330
A
100
AcDbDictionary
281
1
  3
Standard
350
2C
  0
DICTIONARY
  5
10
330
A
100
AcDbDictionary
281
1
  3
Standard
350
22
  0
DICTIONARY
  5
11
330
A
100
AcDbDictionary
281
1
  0
ACDBDICTIONARYWDFLT
  5
12
330
A
100
AcDbDictionary
281
1
  3
Normal
350
13
100
AcDbDictionaryWithDefault
340
13
  0
ACDBPLACEHOLDER
  5
13
330
12
  0
DICTIONARY
  5
14
330
A
100
AcDbDictionary
281
1
  0
DICTIONARY
  5
15
330
A
100
AcDbDictionary
281
1
  0
DICTIONARY
  5
16
330
A
100
AcDbDictionary
281
1
  0
LAYOUT
  5
1A
330
D
100
AcDbPlotSettings
  1

  2
Adobe PDF
  4
A3
  6

 40
7.5
 41
20.0
 42
7.5
 43
20.0
 44
420.0
 45
297.0
 46
0.0
 47
0.0
 48
0.0
 49
0.0
140
0.0
141
0.0
142
1.0
143
1.0
 70
1024
 72
1
 73
1
 74
5
  7

 75
16
 76
0
 77
2
 78
300
147
1.0
148
0.0
149
0.0
100
AcDbLayout
  1
Model
 70
1
 71
0
 10
0.0
 20
0.0
 11
420.0
 21
297.0
 12
0.0
 22
0.0
 32
0.0
 14
1e+20
 24
1e+20
 34
1e+20
 15
-1e+20
 25
-1e+20
 35
-1e+20
146
0.0
 13
0.0
 23
0.0
 33
0.0
 16
1.0
 26
0.0
 36
0.0
 17
0.0
 27
1.0
 37
0.0
 76
1
330
17
  0
LAYOUT
  5
1E
330
D
100
AcDbPlotSettings
  1

  2
Adobe PDF
  4
A3
  6

 40
7.5
 41
20.0
 42
7.5
 43
20.0
 44
420.0
 45
297.0
 46
0.0
 47
0.0
 48
0.0
 49
0.0
140
0.0
141
0.0
142
1.0
143
1.0
 70
0
 72
1
 73
1
 74
5
  7

 75
16
 76
0
 77
2
 78
300
147
1.0
148
0.0
149
0.0
100
AcDbLayout
  1
Layout1
 70
1
 71
1
 10
0.0
 20
0.0
 11
420.0
 21
297.0
 12
0.0
 22
0.0
 32
0.0
 14
1e+20
 24
1e+20
 34
1e+20
 15
-1e+20
 25
-1e+20
 35
-1e+20
146
0.0
 13
0.0
 23
0.0
 33
0.0
 16
1.0
 26
0.0
 36
0.0
 17
0.0
 27
1.0
 37
0.0
 76
1
330
1B
  0
MATERIAL
  5
1F
102
{ACAD_REACTORS
330
E
102
}
330
E
100
AcDbMaterial
  1
ByBlock
  2

 70
0
 40
1.0
 71
1
 41
1.0
 91
-1023410177
 42
1.0
 72
1
  3

 73
1
 74
1
 75
1
 44
0.5
 73
0
 45
1.0
 46
1.0
 77
1
  4

 78
1
 79
1
170
1
 48
1.0
171
1
  6

172
1
173
1
174
1
140
1.0
141
1.0
175
1
  7

176
1
177
1
178
1
143
1.0
179
1
  8

270
1
271
1
272
1
145
1.0
146
1.0
273
1
  9

274
1
275
1
276
1
 42
1.0
 72
1
  3

 73
1
 74
1
 75
1
 94
63
  0
MATERIAL
  5
20
102
{ACAD_REACTORS
330
E
102
}
330
E
100
AcDbMaterial
  1
ByLayer
  2

 70
0
 40
1.0
 71
1
 41
1.0
 91
-1023410177
 42
1.0
 72
1
  3

 73
1
 74
1
 75
1
 44
0.5
 73
0
 45
1.0
 46
1.0
 77
1
  4

 78
1
 79
1
170
1
 48
1.0
171
1
  6

172
1
173
1
174
1
140
1.0
141
1.0
175
1
  7

176
1
177
1
178
1
143
1.0
179
1
  8

270
1
271
1
272
1
145
1.0
146
1.0
273
1
  9

274
1
275
1
276
1
 42
1.0
 72
1
  3

 73
1
 74
1
 75
1
 94
63
  0
MATERIAL
  5
21
102
{ACAD_REACTORS
330
E
102
}
330
E
100
AcDbMaterial
  1
Global
  2

 70
0
 40
1.0
 71
1
 41
1.0
 91
-1023410177
 42
1.0
 72
1
  3

 73
1
 74
1
 75
1
 44
0.5
 73
0
 45
1.0
 46
1.0
 77
1
  4

 78
1
 79
1
170
1
 48
1.0
171
1
  6

172
1
173
1
174
1
140
1.0
141
1.0
175
1
  7

176
1
177
1
178
1
143
1.0
179
1
  8

270
1
271
1
272
1
145
1.0
146
1.0
273
1
  9

274
1
275
1
276
1
 42
1.0
 72
1
  3

 73
1
 74
1
 75
1
 94
63
  0
MLINESTYLE
  5
22
102
{ACAD_REACTORS
330
10
102
}
330
10
100
AcDbMlineStyle
  2
Standard
 70
0
  3

 62
256
 51
90.0
 52
90.0
 71
2
 49
0.5
 62
256
  6
BYLAYER
 49
-0.5
 62
256
  6
BYLAYER
  0
MLEADERSTYLE
  5
2C
102
{ACAD_REACTORS
330
F
102
}
330
F
100
AcDbMLeaderStyle
179
2
170
2
171
1
172
0
 90
2
 40
0.0
 41
0.0
173
1
 91
-1056964608
 92
-2
290
1
 42
2.0
291
1
 43
8.0
  3
Standard
 44
4.0
300

342
29
174
1
175
1
176
0
178
1
 93
-1056964608
 45
4.0
292
0
297
0
 46
4.0
 94
-1056964608
 47
1.0
 49
1.0
140
1.0
294
1
141
0.0
177
0
142
1.0
295
0
296
0
143
3.75
271
0
272
9
273
9
  0
DICTIONARY
  5
2D
330
A
100
AcDbDictionary
280
1
281
1
  3
CREATED_BY_EZDXF
350
2E
  3
WRITTEN_BY_EZDXF
350
41
  0
DICTIONARYVAR
  5
2E
330
2D
100
DictionaryVariables
280
0
  1
0.18.1 @ 2023-03-08T05:13:10.932345+00:00
  0
DICTIONARYVAR
  5
41
330
2D
100
DictionaryVariables
280
0
  1
0.18.1 @ 2023-03-08T05:13:10.936571+00:00
  0
ENDSEC
  0
EOF
